<mxfile host="65bd71144e">
    <diagram id="9GVFc1K7b1Q8w-UmP7Uk" name="description_trace">
        <mxGraphModel dx="1666" dy="2174" grid="1" gridSize="10" guides="1" tooltips="1" connect="1" arrows="1" fold="1" page="1" pageScale="1" pageWidth="850" pageHeight="1100" math="0" shadow="0">
            <root>
                <mxCell id="0"/>
                <mxCell id="1" parent="0"/>
                <mxCell id="29" value="UI Layer" style="swimlane;horizontal=0;fillColor=#e3c800;fontColor=#000000;strokeColor=#B09500;" parent="1" vertex="1">
                    <mxGeometry x="-670" y="-840" width="1660" height="950" as="geometry"/>
                </mxCell>
                <mxCell id="23" value="ui.input_item" style="swimlane;fillColor=#a20025;fontColor=#ffffff;strokeColor=#6F0000;" parent="29" vertex="1">
                    <mxGeometry x="60" y="30" width="720" height="869.2" as="geometry"/>
                </mxCell>
                <mxCell id="R8TYOBVKNRF7gh2X96Ry-53" style="edgeStyle=none;html=1;exitX=0.75;exitY=1;exitDx=0;exitDy=0;entryX=0.5;entryY=0;entryDx=0;entryDy=0;" parent="23" source="24" target="R8TYOBVKNRF7gh2X96Ry-50" edge="1">
                    <mxGeometry relative="1" as="geometry"/>
                </mxCell>
                <mxCell id="24" value="&lt;p style=&quot;margin: 0px ; text-align: center ; margin-top: 4px ; font-family: &amp;#34;times new roman&amp;#34; , serif ; color: #000000&quot;&gt;#InputItemListModel&amp;nbsp;&lt;/p&gt;&lt;hr size=&quot;1&quot;&gt;&lt;p style=&quot;margin: 0px ; margin-left: 4px ; font-family: &amp;#34;times new roman&amp;#34; , serif ; color: #000000&quot;&gt;_device_data&lt;br&gt;_mode&lt;br&gt;mode&lt;/p&gt;&lt;hr size=&quot;1&quot;&gt;&lt;p style=&quot;margin: 0px ; margin-left: 4px ; font-family: &amp;#34;times new roman&amp;#34; , serif ; color: #000000&quot;&gt;__init__(device_data, mode)&lt;br&gt;data(index)&lt;br&gt;event_to_index(event)&lt;br&gt;rows()&lt;/p&gt;" style="verticalAlign=top;align=left;overflow=fill;html=1;rounded=0;shadow=0;comic=0;labelBackgroundColor=none;strokeColor=black;strokeWidth=1;fillColor=#ffffff;" parent="23" vertex="1">
                    <mxGeometry x="40" y="42" width="250" height="158.4" as="geometry"/>
                </mxCell>
                <mxCell id="7" value="&lt;p style=&quot;margin: 0px ; text-align: center ; margin-top: 4px ; font-family: &amp;#34;times new roman&amp;#34; , serif ; color: #000000&quot;&gt;#InputIdentifier&amp;nbsp;&lt;/p&gt;&lt;hr size=&quot;1&quot;&gt;&lt;p style=&quot;margin: 0px ; margin-left: 4px ; font-family: &amp;#34;times new roman&amp;#34; , serif ; color: #000000&quot;&gt;_device_type&lt;br&gt;_input_id&lt;br&gt;_input_type&lt;br&gt;device_type&lt;br&gt;input_id&lt;br&gt;input_type&lt;/p&gt;&lt;hr size=&quot;1&quot;&gt;&lt;p style=&quot;margin: 0px ; margin-left: 4px ; font-family: &amp;#34;times new roman&amp;#34; , serif ; color: #000000&quot;&gt;__init__(input_type, input_id, device_type)&lt;/p&gt;" style="verticalAlign=top;align=left;overflow=fill;html=1;rounded=0;shadow=0;comic=0;labelBackgroundColor=none;strokeColor=black;strokeWidth=1;fillColor=#ffffff;" parent="23" vertex="1">
                    <mxGeometry x="34.959999999999994" y="290" width="260.09" height="158.4" as="geometry"/>
                </mxCell>
                <mxCell id="6" value="&lt;p style=&quot;margin: 0px ; text-align: center ; margin-top: 4px ; font-family: &amp;#34;times new roman&amp;#34; , serif ; color: #000000&quot;&gt;#&lt;span&gt;InputItemButton&amp;nbsp;&lt;/span&gt;&lt;/p&gt;&lt;hr size=&quot;1&quot;&gt;&lt;p style=&quot;margin: 0px ; margin-left: 4px ; font-family: &amp;#34;times new roman&amp;#34; , serif ; color: #000000&quot;&gt;_description_widget&lt;br&gt;_icon_layout&lt;br&gt;_icons : list&lt;br&gt;_label_widget&lt;br&gt;identifier&lt;br&gt;main_layout&lt;br&gt;selected&lt;/p&gt;&lt;hr size=&quot;1&quot;&gt;&lt;p style=&quot;margin: 0px ; margin-left: 4px ; font-family: &amp;#34;times new roman&amp;#34; , serif ; color: #000000&quot;&gt;__init__(identifier, parent)&lt;br&gt;create_action_icons(profile_data)&lt;br&gt;mousePressEvent(event)&lt;br&gt;update_description(description)&lt;/p&gt;" style="verticalAlign=top;align=left;overflow=fill;html=1;rounded=0;shadow=0;comic=0;labelBackgroundColor=none;strokeColor=black;strokeWidth=1;fillColor=#ffffff;" parent="23" vertex="1">
                    <mxGeometry x="34.96" y="530" width="260" height="225.6" as="geometry"/>
                </mxCell>
                <mxCell id="47" value="Indexes into mode to get InputItem data" style="shape=callout;whiteSpace=wrap;html=1;perimeter=calloutPerimeter;position2=0;size=30;position=0.17;base=20;" parent="23" vertex="1">
                    <mxGeometry x="270" y="50" width="120" height="80" as="geometry"/>
                </mxCell>
                <mxCell id="R8TYOBVKNRF7gh2X96Ry-54" value="gets input type to prep draw" style="edgeStyle=none;html=1;exitX=0;exitY=0.25;exitDx=0;exitDy=0;entryX=1;entryY=0.5;entryDx=0;entryDy=0;" parent="23" source="R8TYOBVKNRF7gh2X96Ry-50" target="7" edge="1">
                    <mxGeometry relative="1" as="geometry"/>
                </mxCell>
                <mxCell id="R8TYOBVKNRF7gh2X96Ry-55" value="updates description shown" style="edgeStyle=none;html=1;exitX=0;exitY=0.75;exitDx=0;exitDy=0;entryX=1;entryY=0.5;entryDx=0;entryDy=0;" parent="23" source="R8TYOBVKNRF7gh2X96Ry-50" target="6" edge="1">
                    <mxGeometry relative="1" as="geometry"/>
                </mxCell>
                <mxCell id="R8TYOBVKNRF7gh2X96Ry-50" value="&lt;p style='margin:0px;text-align:center;margin-top:4px;;font-size:10.0px;font-family:Times New Roman,serif;color:#000000;'&gt;#InputItemListView&lt;/p&gt;&lt;hr size='1'/&gt;&lt;p style='margin:0px;text-align:start;margin-left:4px;;font-size:10.0px;font-family:Times New Roman,serif;color:#000000;'&gt;current_index : NoneType&lt;br/&gt;main_layout&lt;br/&gt;scroll_area&lt;br/&gt;scroll_layout&lt;br/&gt;scroll_widget&lt;br/&gt;shown_input_types : list&lt;br/&gt;type_to_string : dict&lt;/p&gt;&lt;hr size='1'/&gt;&lt;p style='margin:0px;text-align:start;margin-left:4px;;font-size:10.0px;font-family:Times New Roman,serif;color:#000000;'&gt;__init__(parent)&lt;br/&gt;_create_selection_callback(index)&lt;br/&gt;limit_input_types(types)&lt;br/&gt;redraw()&lt;br/&gt;redraw_index(index)&lt;br/&gt;select_item(index, emit_signal)&lt;/p&gt;" style="verticalAlign=top;align=left;overflow=fill;html=1;rounded=0;shadow=0;comic=0;labelBackgroundColor=none;strokeColor=black;strokeWidth=1;fillColor=#ffffff;" parent="23" vertex="1">
                    <mxGeometry x="420" y="496.4000000000001" width="207.23000000000002" height="259.2" as="geometry"/>
                </mxCell>
                <mxCell id="28" value="ui.common" style="swimlane;fillColor=#008a00;fontColor=#ffffff;strokeColor=#005700;" parent="29" vertex="1">
                    <mxGeometry x="1160" y="20.000000000000046" width="390" height="570" as="geometry">
                        <mxRectangle x="590" y="70" width="100" height="23" as="alternateBounds"/>
                    </mxGeometry>
                </mxCell>
                <mxCell id="10" value="&lt;p style=&quot;margin: 0px ; text-align: center ; margin-top: 4px ; font-family: &amp;#34;times new roman&amp;#34; , serif ; color: #000000&quot;&gt;#AbstractInputSelector&amp;nbsp;&lt;/p&gt;&lt;hr size=&quot;1&quot;&gt;&lt;p style=&quot;margin: 0px ; margin-left: 4px ; font-family: &amp;#34;times new roman&amp;#34; , serif ; color: #000000&quot;&gt;_device_id_registry : list&lt;br&gt;_input_type_registry : list&lt;br&gt;chage_cb&lt;br&gt;device_dropdown : NoneType&lt;br&gt;device_list : list&lt;br&gt;input_item_dropdowns : list&lt;br&gt;main_layout&lt;br&gt;valid_types&lt;/p&gt;&lt;hr size=&quot;1&quot;&gt;&lt;p style=&quot;margin: 0px ; margin-left: 4px ; font-family: &amp;#34;times new roman&amp;#34; , serif ; color: #000000&quot;&gt;__init__(change_cb, valid_types, parent)&lt;br&gt;_create_device_dropdown()&lt;br&gt;_create_input_dropdown()&lt;br&gt;_device_identifier(device)&lt;br&gt;_execute_callback()&lt;br&gt;_format_device_name(device)&lt;br&gt;_initialize()&lt;br&gt;_update_device(index)&lt;br&gt;get_selection()&lt;br&gt;set_selection(input_type, device_id, input_id)&lt;/p&gt;" style="verticalAlign=top;align=left;overflow=fill;html=1;rounded=0;shadow=0;comic=0;labelBackgroundColor=none;strokeColor=black;strokeWidth=1;fillColor=#ffffff;" parent="28" vertex="1">
                    <mxGeometry x="38.690000000000055" y="40" width="272.61" height="343.2" as="geometry"/>
                </mxCell>
                <mxCell id="11" value="&lt;p style=&quot;margin: 0px ; text-align: center ; margin-top: 4px ; font-family: &amp;#34;times new roman&amp;#34; , serif ; color: #000000&quot;&gt;#VJoySelector&amp;nbsp;&lt;/p&gt;&lt;hr size=&quot;1&quot;&gt;&lt;p style=&quot;margin: 0px ; margin-left: 4px ; font-family: &amp;#34;times new roman&amp;#34; , serif ; color: #000000&quot;&gt;invalid_ids : dict&lt;/p&gt;&lt;hr size=&quot;1&quot;&gt;&lt;p style=&quot;margin: 0px ; margin-left: 4px ; font-family: &amp;#34;times new roman&amp;#34; , serif ; color: #000000&quot;&gt;__init__(change_cb, valid_types, invalid_ids, parent)&lt;br&gt;_device_identifier(device)&lt;br&gt;_format_device_name(device)&lt;br&gt;_initialize()&lt;/p&gt;" style="verticalAlign=top;align=left;overflow=fill;html=1;rounded=0;shadow=0;comic=0;labelBackgroundColor=none;strokeColor=black;strokeWidth=1;fillColor=#ffffff;" parent="28" vertex="1">
                    <mxGeometry x="17.700000000000045" y="420.2" width="314.59" height="124.80000000000001" as="geometry"/>
                </mxCell>
                <mxCell id="9" style="rounded=1;html=1;exitX=0.5;exitY=0;entryX=0.5;entryY=1;jettySize=auto;curved=0;endArrow=block;dashed=0;endFill=1;" parent="28" source="11" target="10" edge="1">
                    <mxGeometry relative="1" as="geometry"/>
                </mxCell>
                <mxCell id="R8TYOBVKNRF7gh2X96Ry-56" value="Creates vJoy drop downs; creates callback when updated" style="shape=callout;whiteSpace=wrap;html=1;perimeter=calloutPerimeter;size=30;position=0.42;base=20;position2=0;" parent="28" vertex="1">
                    <mxGeometry x="270" y="350" width="120" height="120" as="geometry"/>
                </mxCell>
                <mxCell id="22" value="ui.device_tab" style="swimlane;fillColor=#1ba1e2;fontColor=#ffffff;strokeColor=#006EAF;" parent="29" vertex="1">
                    <mxGeometry x="1160" y="610" width="350" height="299.2" as="geometry"/>
                </mxCell>
                <mxCell id="8" value="&lt;p style=&quot;margin: 0px ; text-align: center ; margin-top: 4px ; font-family: &amp;#34;times new roman&amp;#34; , serif ; color: #000000&quot;&gt;#JoystickDeviceTabWidget&amp;nbsp;&lt;/p&gt;&lt;hr size=&quot;1&quot;&gt;&lt;p style=&quot;margin: 0px ; margin-left: 4px ; font-family: &amp;#34;times new roman&amp;#34; , serif ; color: #000000&quot;&gt;current_mode&lt;br&gt;device&lt;br&gt;device_profile&lt;br&gt;input_item_list_model&lt;br&gt;input_item_list_view&lt;br&gt;left_panel_layout&lt;br&gt;main_layout&lt;/p&gt;&lt;hr size=&quot;1&quot;&gt;&lt;p style=&quot;margin: 0px ; margin-left: 4px ; font-family: &amp;#34;times new roman&amp;#34; , serif ; color: #000000&quot;&gt;__init__(device, device_profile, current_mode, parent)&lt;br&gt;_create_change_cb(index)&lt;br&gt;input_item_selected_cb(index)&lt;br&gt;mode_changed_cb(mode)&lt;br&gt;refresh()&lt;br&gt;update_device_label(text)&lt;/p&gt;" style="verticalAlign=top;align=left;overflow=fill;html=1;rounded=0;shadow=0;comic=0;labelBackgroundColor=none;strokeColor=black;strokeWidth=1;fillColor=#ffffff;" parent="22" vertex="1">
                    <mxGeometry x="19.230000000000018" y="30" width="323.1" height="259.2" as="geometry"/>
                </mxCell>
                <mxCell id="R8TYOBVKNRF7gh2X96Ry-51" value="calls redraw() from input_item_selected_cb" style="html=1;exitX=0;exitY=0.5;exitDx=0;exitDy=0;entryX=1;entryY=0.5;entryDx=0;entryDy=0;" parent="29" source="8" target="R8TYOBVKNRF7gh2X96Ry-50" edge="1">
                    <mxGeometry relative="1" as="geometry"/>
                </mxCell>
                <mxCell id="R8TYOBVKNRF7gh2X96Ry-52" value="updates index from selection?" style="html=1;exitX=0;exitY=0.25;exitDx=0;exitDy=0;entryX=1;entryY=0.75;entryDx=0;entryDy=0;" parent="29" source="8" target="24" edge="1">
                    <mxGeometry relative="1" as="geometry"/>
                </mxCell>
                <mxCell id="30" value="Repository Layer" style="swimlane;horizontal=0;fillColor=#0050ef;fontColor=#ffffff;strokeColor=#001DBC;" parent="1" vertex="1">
                    <mxGeometry x="-660" y="10" width="1080" height="410" as="geometry"/>
                </mxCell>
                <mxCell id="27" value="profile" style="swimlane;fillColor=#0050ef;fontColor=#ffffff;strokeColor=#001DBC;" parent="30" vertex="1">
                    <mxGeometry x="40" y="20" width="590" height="370" as="geometry"/>
                </mxCell>
                <mxCell id="40" value="Read/Write&amp;nbsp;" style="edgeStyle=none;rounded=1;html=1;exitX=1;exitY=0.75;exitDx=0;exitDy=0;entryX=0.002;entryY=0.159;entryDx=0;entryDy=0;entryPerimeter=0;fillColor=#1ba1e2;strokeColor=#FFFFFF;" parent="27" source="3" target="2" edge="1">
                    <mxGeometry relative="1" as="geometry"/>
                </mxCell>
                <mxCell id="3" value="&lt;p style=&quot;margin: 0px ; text-align: center ; margin-top: 4px ; font-family: &amp;#34;times new roman&amp;#34; , serif ; color: #000000&quot;&gt;#InputItem&amp;nbsp;&lt;/p&gt;&lt;hr size=&quot;1&quot;&gt;&lt;p style=&quot;margin: 0px ; margin-left: 4px ; font-family: &amp;#34;times new roman&amp;#34; , serif ; color: #000000&quot;&gt;always_execute : bool&lt;br&gt;containers : list&lt;br&gt;description : NoneType, str&lt;br&gt;input_id : tuple, int, NoneType&lt;br&gt;input_type : NoneType&lt;br&gt;parent&lt;/p&gt;&lt;hr size=&quot;1&quot;&gt;&lt;p style=&quot;margin: 0px ; margin-left: 4px ; font-family: &amp;#34;times new roman&amp;#34; , serif ; color: #000000&quot;&gt;__eq__(other)&lt;br&gt;__hash__()&lt;br&gt;__init__(parent)&lt;br&gt;from_xml(node)&lt;br&gt;get_device_type()&lt;br&gt;get_input_type()&lt;br&gt;to_xml()&lt;/p&gt;" style="verticalAlign=top;align=left;overflow=fill;html=1;rounded=0;shadow=0;comic=0;labelBackgroundColor=none;strokeColor=black;strokeWidth=1;fillColor=#ffffff;" parent="27" vertex="1">
                    <mxGeometry x="19.999999999999986" y="49.999999999999986" width="189.42" height="259.2" as="geometry"/>
                </mxCell>
                <mxCell id="2" value="&lt;p style=&quot;margin: 0px ; text-align: center ; margin-top: 4px ; font-family: &amp;#34;times new roman&amp;#34; , serif ; color: #000000&quot;&gt;#Mode&amp;nbsp;&lt;/p&gt;&lt;hr size=&quot;1&quot;&gt;&lt;p style=&quot;margin: 0px ; margin-left: 4px ; font-family: &amp;#34;times new roman&amp;#34; , serif ; color: #000000&quot;&gt;config : dict&lt;br&gt;inherit : NoneType&lt;br&gt;name : str, NoneType&lt;br&gt;parent&lt;/p&gt;&lt;hr size=&quot;1&quot;&gt;&lt;p style=&quot;margin: 0px ; margin-left: 4px ; font-family: &amp;#34;times new roman&amp;#34; , serif ; color: #000000&quot;&gt;__init__(parent)&lt;br&gt;all_input_items()&lt;br&gt;delete_data(input_type, input_id)&lt;br&gt;from_xml(node)&lt;br&gt;get_data(input_type, input_id)&lt;br&gt;has_data(input_type, input_id)&lt;br&gt;set_data(input_type, input_id, data)&lt;br&gt;to_xml()&lt;/p&gt;" style="verticalAlign=top;align=left;overflow=fill;html=1;rounded=0;shadow=0;comic=0;labelBackgroundColor=none;strokeColor=black;strokeWidth=1;fillColor=#ffffff;" parent="27" vertex="1">
                    <mxGeometry x="310" y="60" width="215.06" height="242.4" as="geometry"/>
                </mxCell>
                <mxCell id="33" value="Holds collection of InputItems for given mode in config" style="shape=callout;whiteSpace=wrap;html=1;perimeter=calloutPerimeter;size=30;position=0.42;base=20;position2=0;" parent="27" vertex="1">
                    <mxGeometry x="450" y="30" width="120" height="80" as="geometry"/>
                </mxCell>
                <mxCell id="34" value="Holds data for each input; indexed into mode" style="shape=callout;whiteSpace=wrap;html=1;perimeter=calloutPerimeter;size=30;position=0.42;base=20;position2=0;" parent="27" vertex="1">
                    <mxGeometry x="150" y="20" width="120" height="90" as="geometry"/>
                </mxCell>
                <mxCell id="36" value="What hold collection of modes?" style="ellipse;shape=cloud;whiteSpace=wrap;html=1;fillColor=#1ba1e2;fontColor=#ffffff;strokeColor=#006EAF;" parent="27" vertex="1">
                    <mxGeometry x="209.42" y="240" width="165" height="110" as="geometry"/>
                </mxCell>
                <mxCell id="21" value="joystick_handling" style="swimlane;" parent="30" vertex="1">
                    <mxGeometry x="726.62" y="20" width="284.68" height="160" as="geometry"/>
                </mxCell>
                <mxCell id="4" value="&lt;p style=&quot;margin: 0px ; text-align: center ; margin-top: 4px ; font-family: &amp;#34;times new roman&amp;#34; , serif ; color: #000000&quot;&gt;#VJoyProxy&amp;nbsp;&lt;/p&gt;&lt;hr size=&quot;1&quot;&gt;&lt;p style=&quot;margin: 0px ; margin-left: 4px ; font-family: &amp;#34;times new roman&amp;#34; , serif ; color: #000000&quot;&gt;vjoy_devices : dict&lt;/p&gt;&lt;hr size=&quot;1&quot;&gt;&lt;p style=&quot;margin: 0px ; margin-left: 4px ; font-family: &amp;#34;times new roman&amp;#34; , serif ; color: #000000&quot;&gt;__getitem__(key)&lt;br&gt;reset(cls)&lt;/p&gt;" style="verticalAlign=top;align=left;overflow=fill;html=1;rounded=0;shadow=0;comic=0;labelBackgroundColor=none;strokeColor=black;strokeWidth=1;fillColor=#ffffff;" parent="21" vertex="1">
                    <mxGeometry x="23.379999999999995" y="34.39999999999999" width="182.83" height="91.2" as="geometry"/>
                </mxCell>
                <mxCell id="31" value="Holds list of joysticks, but not vjoy buttons" style="shape=callout;whiteSpace=wrap;html=1;perimeter=calloutPerimeter;size=30;position=0.42;base=20;position2=0;" parent="21" vertex="1">
                    <mxGeometry x="164.68" y="10" width="120" height="70" as="geometry"/>
                </mxCell>
                <mxCell id="41" value="profile.xml&lt;br&gt;(Database)" style="shape=cylinder3;whiteSpace=wrap;html=1;boundedLbl=1;backgroundOutline=1;size=15;fillColor=#6a00ff;fontColor=#ffffff;strokeColor=#3700CC;" parent="1" vertex="1">
                    <mxGeometry x="-460" y="550" width="160" height="110" as="geometry"/>
                </mxCell>
                <mxCell id="44" style="edgeStyle=orthogonalEdgeStyle;rounded=1;html=1;exitX=0.5;exitY=1;exitDx=0;exitDy=0;entryX=0.5;entryY=0;entryDx=0;entryDy=0;entryPerimeter=0;strokeColor=#FFFFFF;startArrow=classic;startFill=1;" parent="1" source="3" target="41" edge="1">
                    <mxGeometry relative="1" as="geometry">
                        <Array as="points">
                            <mxPoint x="-505" y="460"/>
                            <mxPoint x="-380" y="460"/>
                        </Array>
                    </mxGeometry>
                </mxCell>
                <mxCell id="45" style="edgeStyle=orthogonalEdgeStyle;rounded=1;html=1;exitX=0.5;exitY=1;exitDx=0;exitDy=0;entryX=0.5;entryY=0;entryDx=0;entryDy=0;entryPerimeter=0;strokeColor=#FFFFFF;startArrow=classic;startFill=1;" parent="1" source="2" target="41" edge="1">
                    <mxGeometry relative="1" as="geometry">
                        <Array as="points">
                            <mxPoint x="-202" y="460"/>
                            <mxPoint x="-380" y="460"/>
                        </Array>
                    </mxGeometry>
                </mxCell>
                <mxCell id="46" style="edgeStyle=orthogonalEdgeStyle;html=1;exitX=0.25;exitY=0;exitDx=0;exitDy=0;entryX=1;entryY=0.5;entryDx=0;entryDy=0;" parent="1" source="2" target="24" edge="1">
                    <mxGeometry relative="1" as="geometry"/>
                </mxCell>
            </root>
        </mxGraphModel>
    </diagram>
    <diagram id="mr_mdXBg1DZPY689ZHL0" name="profile">
        <mxGraphModel dx="4947" dy="1116" grid="1" gridSize="10" guides="1" tooltips="1" connect="1" arrows="1" fold="1" page="1" pageScale="1" pageWidth="850" pageHeight="1100" math="0" shadow="0">
            <root>
                <mxCell id="L2Rh11Mj4o6XcxZUxk_e-0"/>
                <mxCell id="L2Rh11Mj4o6XcxZUxk_e-1" parent="L2Rh11Mj4o6XcxZUxk_e-0"/>
                <mxCell id="ZCFY-8POKFsX8ndDaHs9-0" value="profile" style="swimlane;fillColor=#0050ef;fontColor=#ffffff;strokeColor=#001DBC;" vertex="1" parent="L2Rh11Mj4o6XcxZUxk_e-1">
                    <mxGeometry x="-2710" y="690" width="2900" height="1010" as="geometry"/>
                </mxCell>
                <mxCell id="ZCFY-8POKFsX8ndDaHs9-1" value="&lt;p style='margin:0px;text-align:center;margin-top:4px;;font-size:10.0px;font-family:Times New Roman,serif;color:#000000;'&gt;#Device&lt;/p&gt;&lt;hr size='1'/&gt;&lt;p style='margin:0px;text-align:start;margin-left:4px;;font-size:10.0px;font-family:Times New Roman,serif;color:#000000;'&gt;device_guid : NoneType&lt;br/&gt;label : str, NoneType&lt;br/&gt;modes : dict&lt;br/&gt;name : NoneType&lt;br/&gt;parent&lt;br/&gt;type : NoneType&lt;/p&gt;&lt;hr size='1'/&gt;&lt;p style='margin:0px;text-align:start;margin-left:4px;;font-size:10.0px;font-family:Times New Roman,serif;color:#000000;'&gt;__init__(parent)&lt;br/&gt;ensure_mode_exists(mode_name, device)&lt;br/&gt;from_xml(node)&lt;br/&gt;to_xml()&lt;/p&gt;" style="verticalAlign=top;align=left;overflow=fill;html=1;rounded=0;shadow=0;comic=0;labelBackgroundColor=none;strokeColor=black;strokeWidth=1;fillColor=#ffffff;" vertex="1" parent="ZCFY-8POKFsX8ndDaHs9-0">
                    <mxGeometry x="71.65999999999985" y="507" width="250.81" height="208.79999999999995" as="geometry"/>
                </mxCell>
                <mxCell id="ZCFY-8POKFsX8ndDaHs9-2" value="&lt;p style='margin:0px;text-align:center;margin-top:4px;;font-size:10.0px;font-family:Times New Roman,serif;color:#000000;'&gt;#GUIDConverter&lt;/p&gt;&lt;hr size='1'/&gt;&lt;p style='margin:0px;text-align:start;margin-left:4px;;font-size:10.0px;font-family:Times New Roman,serif;color:#000000;'&gt;dev_info : dict&lt;br/&gt;hwid_to_guid : dict&lt;br/&gt;vjoy_to_guid : dict&lt;/p&gt;&lt;hr size='1'/&gt;&lt;p style='margin:0px;text-align:start;margin-left:4px;;font-size:10.0px;font-family:Times New Roman,serif;color:#000000;'&gt;__init__()&lt;br/&gt;axis_lookup(device_guid, linear_id)&lt;br/&gt;lookup(hardware_id, name)&lt;br/&gt;vjoy_lookup(vjoy_id)&lt;/p&gt;" style="verticalAlign=top;align=left;overflow=fill;html=1;rounded=0;shadow=0;comic=0;labelBackgroundColor=none;strokeColor=black;strokeWidth=1;fillColor=#ffffff;" vertex="1" parent="ZCFY-8POKFsX8ndDaHs9-0">
                    <mxGeometry x="340.5899999999997" y="532.2" width="218.95" height="158.40000000000003" as="geometry"/>
                </mxCell>
                <mxCell id="ZCFY-8POKFsX8ndDaHs9-3" value="&lt;p style='margin:0px;text-align:center;margin-top:4px;;font-size:10.0px;font-family:Times New Roman,serif;color:#000000;'&gt;#InputItem&lt;/p&gt;&lt;hr size='1'/&gt;&lt;p style='margin:0px;text-align:start;margin-left:4px;;font-size:10.0px;font-family:Times New Roman,serif;color:#000000;'&gt;always_execute : bool&lt;br/&gt;containers : list&lt;br/&gt;description : str, NoneType&lt;br/&gt;input_id : NoneType, tuple, int&lt;br/&gt;input_type : NoneType&lt;br/&gt;parent&lt;/p&gt;&lt;hr size='1'/&gt;&lt;p style='margin:0px;text-align:start;margin-left:4px;;font-size:10.0px;font-family:Times New Roman,serif;color:#000000;'&gt;__eq__(other)&lt;br/&gt;__hash__()&lt;br/&gt;__init__(parent)&lt;br/&gt;from_xml(node)&lt;br/&gt;get_device_type()&lt;br/&gt;get_input_type()&lt;br/&gt;to_xml()&lt;/p&gt;" style="verticalAlign=top;align=left;overflow=fill;html=1;rounded=0;shadow=0;comic=0;labelBackgroundColor=none;strokeColor=black;strokeWidth=1;fillColor=#ffffff;" vertex="1" parent="ZCFY-8POKFsX8ndDaHs9-0">
                    <mxGeometry x="577.3499999999999" y="481.79999999999995" width="189.42000000000002" height="259.20000000000005" as="geometry"/>
                </mxCell>
                <mxCell id="ZCFY-8POKFsX8ndDaHs9-4" value="&lt;p style='margin:0px;text-align:center;margin-top:4px;;font-size:10.0px;font-family:Times New Roman,serif;color:#000000;'&gt;#Mode&lt;/p&gt;&lt;hr size='1'/&gt;&lt;p style='margin:0px;text-align:start;margin-left:4px;;font-size:10.0px;font-family:Times New Roman,serif;color:#000000;'&gt;config : dict&lt;br/&gt;inherit : NoneType&lt;br/&gt;name : str, NoneType&lt;br/&gt;parent&lt;/p&gt;&lt;hr size='1'/&gt;&lt;p style='margin:0px;text-align:start;margin-left:4px;;font-size:10.0px;font-family:Times New Roman,serif;color:#000000;'&gt;__init__(parent)&lt;br/&gt;all_input_items()&lt;br/&gt;delete_data(input_type, input_id)&lt;br/&gt;from_xml(node)&lt;br/&gt;get_data(input_type, input_id)&lt;br/&gt;has_data(input_type, input_id)&lt;br/&gt;set_data(input_type, input_id, data)&lt;br/&gt;to_xml()&lt;/p&gt;" style="verticalAlign=top;align=left;overflow=fill;html=1;rounded=0;shadow=0;comic=0;labelBackgroundColor=none;strokeColor=black;strokeWidth=1;fillColor=#ffffff;" vertex="1" parent="ZCFY-8POKFsX8ndDaHs9-0">
                    <mxGeometry x="784.53" y="490.20000000000005" width="215.07000000000005" height="242.40000000000003" as="geometry"/>
                </mxCell>
                <mxCell id="ZCFY-8POKFsX8ndDaHs9-5" value="&lt;p style='margin:0px;text-align:center;margin-top:4px;;font-size:10.0px;font-family:Times New Roman,serif;color:#000000;'&gt;#Plugin&lt;/p&gt;&lt;hr size='1'/&gt;&lt;p style='margin:0px;text-align:start;margin-left:4px;;font-size:10.0px;font-family:Times New Roman,serif;color:#000000;'&gt;file_name : str, NoneType&lt;br/&gt;instances : list&lt;br/&gt;parent&lt;/p&gt;&lt;hr size='1'/&gt;&lt;p style='margin:0px;text-align:start;margin-left:4px;;font-size:10.0px;font-family:Times New Roman,serif;color:#000000;'&gt;__init__(parent)&lt;br/&gt;from_xml(node)&lt;br/&gt;to_xml()&lt;/p&gt;" style="verticalAlign=top;align=left;overflow=fill;html=1;rounded=0;shadow=0;comic=0;labelBackgroundColor=none;strokeColor=black;strokeWidth=1;fillColor=#ffffff;" vertex="1" parent="ZCFY-8POKFsX8ndDaHs9-0">
                    <mxGeometry x="1017.5899999999999" y="540.5999999999999" width="162.95000000000016" height="141.59999999999997" as="geometry"/>
                </mxCell>
                <mxCell id="ZCFY-8POKFsX8ndDaHs9-6" value="&lt;p style='margin:0px;text-align:center;margin-top:4px;;font-size:10.0px;font-family:Times New Roman,serif;color:#000000;'&gt;#PluginInstance&lt;/p&gt;&lt;hr size='1'/&gt;&lt;p style='margin:0px;text-align:start;margin-left:4px;;font-size:10.0px;font-family:Times New Roman,serif;color:#000000;'&gt;name : NoneType, str&lt;br/&gt;parent&lt;br/&gt;variables : dict&lt;/p&gt;&lt;hr size='1'/&gt;&lt;p style='margin:0px;text-align:start;margin-left:4px;;font-size:10.0px;font-family:Times New Roman,serif;color:#000000;'&gt;__init__(parent)&lt;br/&gt;from_xml(node)&lt;br/&gt;get_variable(name)&lt;br/&gt;has_variable(name)&lt;br/&gt;is_configured()&lt;br/&gt;set_variable(name, variable)&lt;br/&gt;to_xml()&lt;/p&gt;" style="verticalAlign=top;align=left;overflow=fill;html=1;rounded=0;shadow=0;comic=0;labelBackgroundColor=none;strokeColor=black;strokeWidth=1;fillColor=#ffffff;" vertex="1" parent="ZCFY-8POKFsX8ndDaHs9-0">
                    <mxGeometry x="1198.38" y="507" width="175.3599999999999" height="208.79999999999995" as="geometry"/>
                </mxCell>
                <mxCell id="ZCFY-8POKFsX8ndDaHs9-7" value="&lt;p style='margin:0px;text-align:center;margin-top:4px;;font-size:10.0px;font-family:Times New Roman,serif;color:#000000;'&gt;#PluginVariable&lt;/p&gt;&lt;hr size='1'/&gt;&lt;p style='margin:0px;text-align:start;margin-left:4px;;font-size:10.0px;font-family:Times New Roman,serif;color:#000000;'&gt;is_optional : bool&lt;br/&gt;name : str, NoneType&lt;br/&gt;parent&lt;br/&gt;type : NoneType&lt;br/&gt;value : str, int, NoneType, float, bool, dict&lt;/p&gt;&lt;hr size='1'/&gt;&lt;p style='margin:0px;text-align:start;margin-left:4px;;font-size:10.0px;font-family:Times New Roman,serif;color:#000000;'&gt;__init__(parent)&lt;br/&gt;from_xml(node)&lt;br/&gt;to_xml()&lt;/p&gt;" style="verticalAlign=top;align=left;overflow=fill;html=1;rounded=0;shadow=0;comic=0;labelBackgroundColor=none;strokeColor=black;strokeWidth=1;fillColor=#ffffff;" vertex="1" parent="ZCFY-8POKFsX8ndDaHs9-0">
                    <mxGeometry x="1391.26" y="523.8" width="251.61000000000013" height="175.20000000000005" as="geometry"/>
                </mxCell>
                <mxCell id="ZCFY-8POKFsX8ndDaHs9-8" value="&lt;p style='margin:0px;text-align:center;margin-top:4px;;font-size:10.0px;font-family:Times New Roman,serif;color:#000000;'&gt;#Profile&lt;/p&gt;&lt;hr size='1'/&gt;&lt;p style='margin:0px;text-align:start;margin-left:4px;;font-size:10.0px;font-family:Times New Roman,serif;color:#000000;'&gt;devices : dict&lt;br/&gt;merge_axes : list&lt;br/&gt;parent : NoneType&lt;br/&gt;plugins : list&lt;br/&gt;settings&lt;br/&gt;vjoy_devices : dict&lt;/p&gt;&lt;hr size='1'/&gt;&lt;p style='margin:0px;text-align:start;margin-left:4px;;font-size:10.0px;font-family:Times New Roman,serif;color:#000000;'&gt;__init__()&lt;br/&gt;_parse_merge_axis(node)&lt;br/&gt;build_inheritance_tree()&lt;br/&gt;empty()&lt;br/&gt;from_xml(fname)&lt;br/&gt;get_device_modes(device_guid, device_type, device_name)&lt;br/&gt;get_root_modes()&lt;br/&gt;initialize_joystick_device(device, modes)&lt;br/&gt;list_unused_vjoy_inputs()&lt;br/&gt;to_xml(fname)&lt;/p&gt;" style="verticalAlign=top;align=left;overflow=fill;html=1;rounded=0;shadow=0;comic=0;labelBackgroundColor=none;strokeColor=black;strokeWidth=1;fillColor=#ffffff;" vertex="1" parent="ZCFY-8POKFsX8ndDaHs9-0">
                    <mxGeometry x="1613.3600000000001" y="110" width="353.40999999999985" height="309.59999999999997" as="geometry"/>
                </mxCell>
                <mxCell id="ZCFY-8POKFsX8ndDaHs9-9" value="&lt;p style='margin:0px;text-align:center;margin-top:4px;;font-size:10.0px;font-family:Times New Roman,serif;color:#000000;'&gt;#ProfileConverter&lt;/p&gt;&lt;hr size='1'/&gt;&lt;p style='margin:0px;text-align:start;margin-left:4px;;font-size:10.0px;font-family:Times New Roman,serif;color:#000000;'&gt;current_version : int&lt;/p&gt;&lt;hr size='1'/&gt;&lt;p style='margin:0px;text-align:start;margin-left:4px;;font-size:10.0px;font-family:Times New Roman,serif;color:#000000;'&gt;__init__()&lt;br/&gt;_convert_from_v1(root, fname)&lt;br/&gt;_convert_from_v2(root, fname)&lt;br/&gt;_convert_from_v3(root, fname)&lt;br/&gt;_convert_from_v4(root, fname)&lt;br/&gt;_convert_from_v5(root, fname)&lt;br/&gt;_convert_from_v6(root, fname)&lt;br/&gt;_convert_from_v7(root, fname)&lt;br/&gt;_convert_from_v8(root, fname)&lt;br/&gt;_determine_version(root)&lt;br/&gt;_p3_extract_map_to_keyboard(input_item)&lt;br/&gt;convert_profile(fname)&lt;br/&gt;is_current(fname)&lt;/p&gt;" style="verticalAlign=top;align=left;overflow=fill;html=1;rounded=0;shadow=0;comic=0;labelBackgroundColor=none;strokeColor=black;strokeWidth=1;fillColor=#ffffff;" vertex="1" parent="ZCFY-8POKFsX8ndDaHs9-0">
                    <mxGeometry x="1936.9899999999998" y="473.4000000000001" width="260.1500000000001" height="276" as="geometry"/>
                </mxCell>
                <mxCell id="ZCFY-8POKFsX8ndDaHs9-10" value="&lt;p style='margin:0px;text-align:center;margin-top:4px;;font-size:10.0px;font-family:Times New Roman,serif;color:#000000;'&gt;#ProfileData&lt;/p&gt;&lt;hr size='1'/&gt;&lt;p style='margin:0px;text-align:start;margin-left:4px;;font-size:10.0px;font-family:Times New Roman,serif;color:#000000;'&gt;code : NoneType&lt;br/&gt;parent&lt;/p&gt;&lt;hr size='1'/&gt;&lt;p style='margin:0px;text-align:start;margin-left:4px;;font-size:10.0px;font-family:Times New Roman,serif;color:#000000;'&gt;__init__(parent)&lt;br/&gt;_generate_xml()&lt;br/&gt;_is_valid()&lt;br/&gt;_parse_xml(node)&lt;br/&gt;_sanitize()&lt;br/&gt;from_xml(node)&lt;br/&gt;get_device_type()&lt;br/&gt;get_input_type()&lt;br/&gt;get_mode()&lt;br/&gt;get_settings()&lt;br/&gt;is_valid()&lt;br/&gt;to_xml()&lt;/p&gt;" style="verticalAlign=top;align=left;overflow=fill;html=1;rounded=0;shadow=0;comic=0;labelBackgroundColor=none;strokeColor=black;strokeWidth=1;fillColor=#ffffff;" vertex="1" parent="ZCFY-8POKFsX8ndDaHs9-0">
                    <mxGeometry x="2215.39" y="473.4000000000001" width="121.34999999999991" height="276" as="geometry"/>
                </mxCell>
                <mxCell id="ZCFY-8POKFsX8ndDaHs9-11" value="&lt;p style=&quot;margin: 0px ; text-align: center ; margin-top: 4px ; font-family: &amp;#34;times new roman&amp;#34; , serif ; color: #000000&quot;&gt;#ProfileModifier&amp;nbsp;&lt;/p&gt;&lt;hr size=&quot;1&quot;&gt;&lt;p style=&quot;margin: 0px ; margin-left: 4px ; font-family: &amp;#34;times new roman&amp;#34; , serif ; color: #000000&quot;&gt;profile&lt;/p&gt;&lt;hr size=&quot;1&quot;&gt;&lt;p style=&quot;margin: 0px ; margin-left: 4px ; font-family: &amp;#34;times new roman&amp;#34; , serif ; color: #000000&quot;&gt;__init__(profile)&lt;br&gt;_get_device(device_guid)&lt;br&gt;all_conditions()&lt;br&gt;change_conditions(source_guid, target_guid)&lt;br&gt;change_device_actions(source_guid, target_guid)&lt;br&gt;change_device_guid(source_guid, target_guid)&lt;br&gt;change_merge_axis(source_guid, target_guid)&lt;br&gt;condition_count(device_guid)&lt;br&gt;container_count(device_guid)&lt;br&gt;device_information_list()&lt;br&gt;device_names()&lt;br&gt;merge_axis_count(device_guid)&lt;/p&gt;" style="verticalAlign=top;align=left;overflow=fill;html=1;rounded=0;shadow=0;comic=0;labelBackgroundColor=none;strokeColor=black;strokeWidth=1;fillColor=#ffffff;" vertex="1" parent="ZCFY-8POKFsX8ndDaHs9-0">
                    <mxGeometry x="2354.89" y="481.79999999999995" width="294.34000000000015" height="259.20000000000005" as="geometry"/>
                </mxCell>
                <mxCell id="ZCFY-8POKFsX8ndDaHs9-12" value="&lt;p style='margin:0px;text-align:center;margin-top:4px;;font-size:10.0px;font-family:Times New Roman,serif;color:#000000;'&gt;#Settings&lt;/p&gt;&lt;hr size='1'/&gt;&lt;p style='margin:0px;text-align:start;margin-left:4px;;font-size:10.0px;font-family:Times New Roman,serif;color:#000000;'&gt;default_delay : float&lt;br/&gt;parent&lt;br/&gt;startup_mode : NoneType&lt;br/&gt;vjoy_as_input : dict&lt;br/&gt;vjoy_initial_values : dict&lt;/p&gt;&lt;hr size='1'/&gt;&lt;p style='margin:0px;text-align:start;margin-left:4px;;font-size:10.0px;font-family:Times New Roman,serif;color:#000000;'&gt;__init__(parent)&lt;br/&gt;from_xml(node)&lt;br/&gt;get_initial_vjoy_axis_value(vid, aid)&lt;br/&gt;set_initial_vjoy_axis_value(vid, aid, value)&lt;br/&gt;to_xml()&lt;/p&gt;" style="verticalAlign=top;align=left;overflow=fill;html=1;rounded=0;shadow=0;comic=0;labelBackgroundColor=none;strokeColor=black;strokeWidth=1;fillColor=#ffffff;" vertex="1" parent="ZCFY-8POKFsX8ndDaHs9-0">
                    <mxGeometry x="1660.76" y="507" width="258.6100000000001" height="208.79999999999995" as="geometry"/>
                </mxCell>
                <mxCell id="ZCFY-8POKFsX8ndDaHs9-13" style="rounded=1;html=1;exitX=0.5;exitY=0;entryX=0.5;entryY=1;jettySize=auto;curved=0;endArrow=block;dashed=0;endFill=1;" edge="1" parent="ZCFY-8POKFsX8ndDaHs9-0" source="ZCFY-8POKFsX8ndDaHs9-12" target="ZCFY-8POKFsX8ndDaHs9-8">
                    <mxGeometry relative="1" as="geometry"/>
                </mxCell>
            </root>
        </mxGraphModel>
    </diagram>
    <diagram id="lyoVddkC2p1wPbmTuMc7" name="ui.common">
        <mxGraphModel dx="465" dy="-563" grid="1" gridSize="10" guides="1" tooltips="1" connect="1" arrows="1" fold="1" page="1" pageScale="1" pageWidth="850" pageHeight="1100" math="0" shadow="0">
            <root>
                <mxCell id="PRCU04RuPEPjNlCsUaEb-0"/>
                <mxCell id="PRCU04RuPEPjNlCsUaEb-1" parent="PRCU04RuPEPjNlCsUaEb-0"/>
                <mxCell id="PRCU04RuPEPjNlCsUaEb-2" value="ui.common" style="swimlane;fillColor=#008a00;fontColor=#ffffff;strokeColor=#005700;" vertex="1" parent="PRCU04RuPEPjNlCsUaEb-1">
                    <mxGeometry x="970" y="1210" width="3530" height="2670" as="geometry"/>
                </mxCell>
                <mxCell id="PRCU04RuPEPjNlCsUaEb-3" value="&lt;p style='margin:0px;text-align:center;margin-top:4px;;font-size:10.0px;font-family:Times New Roman,serif;color:#000000;'&gt;_thread.RLock&lt;/p&gt;&lt;hr size='1'/&gt;&lt;p style='margin:0px;text-align:start;margin-left:4px;;font-size:10.0px;font-family:Times New Roman,serif;color:#000000;'&gt;__delattr__()&lt;br/&gt;__dir__()&lt;br/&gt;__enter__()&lt;br/&gt;__eq__()&lt;br/&gt;__exit__()&lt;br/&gt;__format__()&lt;br/&gt;__ge__()&lt;br/&gt;__getattribute__()&lt;br/&gt;__gt__()&lt;br/&gt;__hash__()&lt;br/&gt;__init__()&lt;br/&gt;__le__()&lt;br/&gt;__lt__()&lt;br/&gt;__ne__()&lt;br/&gt;__reduce__()&lt;br/&gt;__reduce_ex__()&lt;br/&gt;__repr__()&lt;br/&gt;__setattr__()&lt;br/&gt;__sizeof__()&lt;br/&gt;__str__()&lt;br/&gt;_acquire_restore()&lt;br/&gt;_is_owned()&lt;br/&gt;_release_save()&lt;br/&gt;acquire()&lt;br/&gt;release()&lt;/p&gt;" style="verticalAlign=top;align=left;overflow=fill;html=1;rounded=0;shadow=0;comic=0;labelBackgroundColor=none;strokeColor=black;strokeWidth=1;fillColor=#ffffff;" vertex="1" parent="PRCU04RuPEPjNlCsUaEb-2">
                    <mxGeometry x="193.80999999999995" y="1972.8000000000002" width="118.61" height="476.7999999999997" as="geometry"/>
                </mxCell>
                <mxCell id="PRCU04RuPEPjNlCsUaEb-4" value="&lt;p style='margin:0px;text-align:center;margin-top:4px;;font-size:10.0px;font-family:Times New Roman,serif;color:#000000;'&gt;threading.Condition&lt;/p&gt;&lt;hr size='1'/&gt;&lt;p style='margin:0px;text-align:start;margin-left:4px;;font-size:10.0px;font-family:Times New Roman,serif;color:#000000;'&gt;_acquire_restore&lt;br/&gt;_is_owned&lt;br/&gt;_lock : NoneType&lt;br/&gt;_release_save&lt;br/&gt;_waiters&lt;br/&gt;acquire&lt;br/&gt;notifyAll&lt;br/&gt;release&lt;/p&gt;&lt;hr size='1'/&gt;&lt;p style='margin:0px;text-align:start;margin-left:4px;;font-size:10.0px;font-family:Times New Roman,serif;color:#000000;'&gt;__enter__()&lt;br/&gt;__exit__()&lt;br/&gt;__init__(lock)&lt;br/&gt;__repr__()&lt;br/&gt;_acquire_restore(x)&lt;br/&gt;_is_owned()&lt;br/&gt;_release_save()&lt;br/&gt;notify(n)&lt;br/&gt;notify_all()&lt;br/&gt;wait(timeout)&lt;br/&gt;wait_for(predicate, timeout)&lt;/p&gt;" style="verticalAlign=top;align=left;overflow=fill;html=1;rounded=0;shadow=0;comic=0;labelBackgroundColor=none;strokeColor=black;strokeWidth=1;fillColor=#ffffff;" vertex="1" parent="PRCU04RuPEPjNlCsUaEb-2">
                    <mxGeometry x="324.1999999999998" y="1508.1999999999998" width="173.82" height="360" as="geometry"/>
                </mxCell>
                <mxCell id="PRCU04RuPEPjNlCsUaEb-5" style="rounded=1;html=1;exitX=0.948;exitY=0;entryX=0.0607;entryY=1;jettySize=auto;curved=0;endArrow=block;dashed=0;endFill=1;" edge="1" parent="PRCU04RuPEPjNlCsUaEb-2" source="PRCU04RuPEPjNlCsUaEb-3" target="PRCU04RuPEPjNlCsUaEb-4">
                    <mxGeometry relative="1" as="geometry">
                        <Array as="points">
                            <mxPoint x="306.25" y="1972.77"/>
                            <mxPoint x="321.1100000000001" y="1921.5"/>
                            <mxPoint x="334.75" y="1880.12"/>
                        </Array>
                    </mxGeometry>
                </mxCell>
                <mxCell id="PRCU04RuPEPjNlCsUaEb-6" value="&lt;p style='margin:0px;text-align:center;margin-top:4px;;font-size:10.0px;font-family:Times New Roman,serif;color:#000000;'&gt;threading.Event&lt;/p&gt;&lt;hr size='1'/&gt;&lt;p style='margin:0px;text-align:start;margin-left:4px;;font-size:10.0px;font-family:Times New Roman,serif;color:#000000;'&gt;_cond&lt;br/&gt;_flag : bool&lt;br/&gt;isSet&lt;/p&gt;&lt;hr size='1'/&gt;&lt;p style='margin:0px;text-align:start;margin-left:4px;;font-size:10.0px;font-family:Times New Roman,serif;color:#000000;'&gt;__init__()&lt;br/&gt;_reset_internal_locks()&lt;br/&gt;clear()&lt;br/&gt;is_set()&lt;br/&gt;set()&lt;br/&gt;wait(timeout)&lt;/p&gt;" style="verticalAlign=top;align=left;overflow=fill;html=1;rounded=0;shadow=0;comic=0;labelBackgroundColor=none;strokeColor=black;strokeWidth=1;fillColor=#ffffff;" vertex="1" parent="PRCU04RuPEPjNlCsUaEb-2">
                    <mxGeometry x="338.5799999999999" y="1262.4" width="145.05999999999997" height="192" as="geometry"/>
                </mxCell>
                <mxCell id="PRCU04RuPEPjNlCsUaEb-7" style="rounded=1;html=1;exitX=0.5;exitY=0;entryX=0.5;entryY=1;jettySize=auto;curved=0;endArrow=block;dashed=0;endFill=1;" edge="1" parent="PRCU04RuPEPjNlCsUaEb-2" source="PRCU04RuPEPjNlCsUaEb-4" target="PRCU04RuPEPjNlCsUaEb-6">
                    <mxGeometry relative="1" as="geometry"/>
                </mxCell>
                <mxCell id="PRCU04RuPEPjNlCsUaEb-8" value="&lt;p style='margin:0px;text-align:center;margin-top:4px;;font-size:10.0px;font-family:Times New Roman,serif;color:#000000;'&gt;collections.deque&lt;/p&gt;&lt;hr size='1'/&gt;&lt;p style='margin:0px;text-align:start;margin-left:4px;;font-size:10.0px;font-family:Times New Roman,serif;color:#000000;'&gt;iterable : list&lt;br/&gt;maxlen : int&lt;/p&gt;&lt;hr size='1'/&gt;&lt;p style='margin:0px;text-align:start;margin-left:4px;;font-size:10.0px;font-family:Times New Roman,serif;color:#000000;'&gt;__add__(other)&lt;br/&gt;__bool__()&lt;br/&gt;__contains__(o)&lt;br/&gt;__copy__()&lt;br/&gt;__delitem__(index)&lt;br/&gt;__getitem__(index)&lt;br/&gt;__iadd__(other)&lt;br/&gt;__imul__(other)&lt;br/&gt;__init__(iterable, maxlen)&lt;br/&gt;__iter__()&lt;br/&gt;__len__()&lt;br/&gt;__mul__(other)&lt;br/&gt;__nonzero__()&lt;br/&gt;__reversed__()&lt;br/&gt;__rmul__(other)&lt;br/&gt;__setitem__(index, value)&lt;br/&gt;append(x)&lt;br/&gt;appendleft(x)&lt;br/&gt;clear()&lt;br/&gt;copy()&lt;br/&gt;count(x)&lt;br/&gt;extend(iterable)&lt;br/&gt;extendleft(iterable)&lt;br/&gt;index(x, start, end)&lt;br/&gt;insert(x, i)&lt;br/&gt;pop()&lt;br/&gt;popleft()&lt;br/&gt;remove(value)&lt;br/&gt;reverse()&lt;br/&gt;rotate(n)&lt;/p&gt;" style="verticalAlign=top;align=left;overflow=fill;html=1;rounded=0;shadow=0;comic=0;labelBackgroundColor=none;strokeColor=black;strokeWidth=1;fillColor=#ffffff;" vertex="1" parent="PRCU04RuPEPjNlCsUaEb-2">
                    <mxGeometry x="330.02" y="1922" width="162.17999999999998" height="578.4000000000001" as="geometry"/>
                </mxCell>
                <mxCell id="PRCU04RuPEPjNlCsUaEb-9" style="rounded=1;html=1;exitX=0.5;exitY=0;entryX=0.5;entryY=1;jettySize=auto;curved=0;endArrow=block;dashed=0;endFill=1;" edge="1" parent="PRCU04RuPEPjNlCsUaEb-2" source="PRCU04RuPEPjNlCsUaEb-8" target="PRCU04RuPEPjNlCsUaEb-4">
                    <mxGeometry relative="1" as="geometry"/>
                </mxCell>
                <mxCell id="PRCU04RuPEPjNlCsUaEb-10" value="&lt;p style='margin:0px;text-align:center;margin-top:4px;;font-size:10.0px;font-family:Times New Roman,serif;color:#000000;'&gt;colorama.ansitowin32.StreamWrapper&lt;/p&gt;&lt;hr size='1'/&gt;&lt;p style='margin:0px;text-align:start;margin-left:4px;;font-size:10.0px;font-family:Times New Roman,serif;color:#000000;'&gt;__convertor&lt;br/&gt;__wrapped&lt;br/&gt;closed&lt;/p&gt;&lt;hr size='1'/&gt;&lt;p style='margin:0px;text-align:start;margin-left:4px;;font-size:10.0px;font-family:Times New Roman,serif;color:#000000;'&gt;__enter__()&lt;br/&gt;__exit__()&lt;br/&gt;__getattr__(name)&lt;br/&gt;__init__(wrapped, converter)&lt;br/&gt;isatty()&lt;br/&gt;write(text)&lt;/p&gt;" style="verticalAlign=top;align=left;overflow=fill;html=1;rounded=0;shadow=0;comic=0;labelBackgroundColor=none;strokeColor=black;strokeWidth=1;fillColor=#ffffff;" vertex="1" parent="PRCU04RuPEPjNlCsUaEb-2">
                    <mxGeometry x="457.03999999999996" y="1016.6000000000004" width="232.14999999999998" height="192" as="geometry"/>
                </mxCell>
                <mxCell id="PRCU04RuPEPjNlCsUaEb-11" value="&lt;p style='margin:0px;text-align:center;margin-top:4px;;font-size:10.0px;font-family:Times New Roman,serif;color:#000000;'&gt;threading.Thread&lt;/p&gt;&lt;hr size='1'/&gt;&lt;p style='margin:0px;text-align:start;margin-left:4px;;font-size:10.0px;font-family:Times New Roman,serif;color:#000000;'&gt;_args : tuple&lt;br/&gt;_daemonic : NoneType&lt;br/&gt;_ident : NoneType&lt;br/&gt;_initialized : bool&lt;br/&gt;_initialized : bool&lt;br/&gt;_invoke_excepthook&lt;br/&gt;_is_stopped : bool&lt;br/&gt;_kwargs : dict, NoneType&lt;br/&gt;_name : str&lt;br/&gt;_native_id : NoneType&lt;br/&gt;_started&lt;br/&gt;_stderr&lt;br/&gt;_target : NoneType&lt;br/&gt;_tstate_lock : NoneType&lt;br/&gt;daemon&lt;br/&gt;daemon&lt;br/&gt;ident&lt;br/&gt;name&lt;br/&gt;name&lt;br/&gt;native_id&lt;/p&gt;&lt;hr size='1'/&gt;&lt;p style='margin:0px;text-align:start;margin-left:4px;;font-size:10.0px;font-family:Times New Roman,serif;color:#000000;'&gt;__init__(group, target, name, args, kwargs)&lt;br/&gt;__repr__()&lt;br/&gt;_bootstrap()&lt;br/&gt;_bootstrap_inner()&lt;br/&gt;_delete()&lt;br/&gt;_reset_internal_locks(is_alive)&lt;br/&gt;_set_ident()&lt;br/&gt;_set_native_id()&lt;br/&gt;_set_tstate_lock()&lt;br/&gt;_stop()&lt;br/&gt;_wait_for_tstate_lock(block, timeout)&lt;br/&gt;getName()&lt;br/&gt;isAlive()&lt;br/&gt;isDaemon()&lt;br/&gt;is_alive()&lt;br/&gt;join(timeout)&lt;br/&gt;run()&lt;br/&gt;setDaemon(daemonic)&lt;br/&gt;setName(name)&lt;br/&gt;start()&lt;/p&gt;" style="verticalAlign=top;align=left;overflow=fill;html=1;rounded=0;shadow=0;comic=0;labelBackgroundColor=none;strokeColor=black;strokeWidth=1;fillColor=#ffffff;" vertex="1" parent="PRCU04RuPEPjNlCsUaEb-2">
                    <mxGeometry x="413.80999999999995" y="250" width="258.6" height="712.8000000000002" as="geometry"/>
                </mxCell>
                <mxCell id="PRCU04RuPEPjNlCsUaEb-12" style="rounded=1;html=1;exitX=0.5;exitY=0;entryX=0;entryY=1;jettySize=auto;curved=0;endArrow=block;dashed=0;endFill=1;" edge="1" parent="PRCU04RuPEPjNlCsUaEb-2" source="PRCU04RuPEPjNlCsUaEb-6" target="PRCU04RuPEPjNlCsUaEb-11">
                    <mxGeometry relative="1" as="geometry">
                        <Array as="points">
                            <mxPoint x="405.7199999999998" y="1262.0900000000001"/>
                            <mxPoint x="403.7999999999997" y="1209.1000000000004"/>
                            <mxPoint x="403.7999999999997" y="1016.1000000000004"/>
                            <mxPoint x="411.75999999999976" y="974.5600000000004"/>
                        </Array>
                    </mxGeometry>
                </mxCell>
                <mxCell id="PRCU04RuPEPjNlCsUaEb-13" style="rounded=1;html=1;exitX=0.5;exitY=0;entryX=0.5;entryY=1;jettySize=auto;curved=0;endArrow=block;dashed=0;endFill=1;" edge="1" parent="PRCU04RuPEPjNlCsUaEb-2" source="PRCU04RuPEPjNlCsUaEb-10" target="PRCU04RuPEPjNlCsUaEb-11">
                    <mxGeometry relative="1" as="geometry"/>
                </mxCell>
                <mxCell id="PRCU04RuPEPjNlCsUaEb-14" value="&lt;p style='margin:0px;text-align:center;margin-top:4px;;font-size:10.0px;font-family:Times New Roman,serif;color:#000000;'&gt;#AbstractInputSelector&lt;/p&gt;&lt;hr size='1'/&gt;&lt;p style='margin:0px;text-align:start;margin-left:4px;;font-size:10.0px;font-family:Times New Roman,serif;color:#000000;'&gt;_device_id_registry : list&lt;br/&gt;_input_type_registry : list&lt;br/&gt;chage_cb&lt;br/&gt;device_dropdown : NoneType&lt;br/&gt;device_list : list&lt;br/&gt;input_item_dropdowns : list&lt;br/&gt;main_layout&lt;br/&gt;valid_types&lt;/p&gt;&lt;hr size='1'/&gt;&lt;p style='margin:0px;text-align:start;margin-left:4px;;font-size:10.0px;font-family:Times New Roman,serif;color:#000000;'&gt;__init__(change_cb, valid_types, parent)&lt;br/&gt;_create_device_dropdown()&lt;br/&gt;_create_input_dropdown()&lt;br/&gt;_device_identifier(device)&lt;br/&gt;_execute_callback()&lt;br/&gt;_format_device_name(device)&lt;br/&gt;_initialize()&lt;br/&gt;_update_device(index)&lt;br/&gt;get_selection()&lt;br/&gt;set_selection(input_type, device_id, input_id)&lt;/p&gt;" style="verticalAlign=top;align=left;overflow=fill;html=1;rounded=0;shadow=0;comic=0;labelBackgroundColor=none;strokeColor=black;strokeWidth=1;fillColor=#ffffff;" vertex="1" parent="PRCU04RuPEPjNlCsUaEb-2">
                    <mxGeometry x="828.81" y="1516.6000000000004" width="272.61" height="343.20000000000005" as="geometry"/>
                </mxCell>
                <mxCell id="PRCU04RuPEPjNlCsUaEb-15" value="&lt;p style='margin:0px;text-align:center;margin-top:4px;;font-size:10.0px;font-family:Times New Roman,serif;color:#000000;'&gt;#AbstractModel&lt;/p&gt;&lt;hr size='1'/&gt;&lt;p style='margin:0px;text-align:start;margin-left:4px;;font-size:10.0px;font-family:Times New Roman,serif;color:#000000;'&gt;data_changed&lt;/p&gt;&lt;hr size='1'/&gt;&lt;p style='margin:0px;text-align:start;margin-left:4px;;font-size:10.0px;font-family:Times New Roman,serif;color:#000000;'&gt;__init__(parent)&lt;br/&gt;data(index)&lt;br/&gt;rows()&lt;/p&gt;" style="verticalAlign=top;align=left;overflow=fill;html=1;rounded=0;shadow=0;comic=0;labelBackgroundColor=none;strokeColor=black;strokeWidth=1;fillColor=#ffffff;" vertex="1" parent="PRCU04RuPEPjNlCsUaEb-2">
                    <mxGeometry x="1289.8799999999997" y="2157.2" width="152.47000000000003" height="108" as="geometry"/>
                </mxCell>
                <mxCell id="PRCU04RuPEPjNlCsUaEb-16" value="&lt;p style='margin:0px;text-align:center;margin-top:4px;;font-size:10.0px;font-family:Times New Roman,serif;color:#000000;'&gt;#AbstractView&lt;/p&gt;&lt;hr size='1'/&gt;&lt;p style='margin:0px;text-align:start;margin-left:4px;;font-size:10.0px;font-family:Times New Roman,serif;color:#000000;'&gt;item_selected&lt;br/&gt;model : NoneType&lt;/p&gt;&lt;hr size='1'/&gt;&lt;p style='margin:0px;text-align:start;margin-left:4px;;font-size:10.0px;font-family:Times New Roman,serif;color:#000000;'&gt;__init__(parent)&lt;br/&gt;_model_changed()&lt;br/&gt;redraw()&lt;br/&gt;select_item(index)&lt;br/&gt;set_model(model)&lt;/p&gt;" style="verticalAlign=top;align=left;overflow=fill;html=1;rounded=0;shadow=0;comic=0;labelBackgroundColor=none;strokeColor=black;strokeWidth=1;fillColor=#ffffff;" vertex="1" parent="PRCU04RuPEPjNlCsUaEb-2">
                    <mxGeometry x="1459.9900000000002" y="2132" width="146.25" height="158.4000000000001" as="geometry"/>
                </mxCell>
                <mxCell id="PRCU04RuPEPjNlCsUaEb-17" value="&lt;p style='margin:0px;text-align:center;margin-top:4px;;font-size:10.0px;font-family:Times New Roman,serif;color:#000000;'&gt;#ActionSelector&lt;/p&gt;&lt;hr size='1'/&gt;&lt;p style='margin:0px;text-align:start;margin-left:4px;;font-size:10.0px;font-family:Times New Roman,serif;color:#000000;'&gt;action_added&lt;br/&gt;action_dropdown&lt;br/&gt;add_button&lt;br/&gt;input_type&lt;br/&gt;main_layout&lt;/p&gt;&lt;hr size='1'/&gt;&lt;p style='margin:0px;text-align:start;margin-left:4px;;font-size:10.0px;font-family:Times New Roman,serif;color:#000000;'&gt;__init__(input_type, parent)&lt;br/&gt;_add_action(clicked)&lt;br/&gt;_valid_action_list()&lt;/p&gt;" style="verticalAlign=top;align=left;overflow=fill;html=1;rounded=0;shadow=0;comic=0;labelBackgroundColor=none;strokeColor=black;strokeWidth=1;fillColor=#ffffff;" vertex="1" parent="PRCU04RuPEPjNlCsUaEb-2">
                    <mxGeometry x="1624.19" y="2123.6000000000004" width="173.8499999999999" height="175.20000000000005" as="geometry"/>
                </mxCell>
                <mxCell id="PRCU04RuPEPjNlCsUaEb-18" value="&lt;p style='margin:0px;text-align:center;margin-top:4px;;font-size:10.0px;font-family:Times New Roman,serif;color:#000000;'&gt;#BaseDialogUi&lt;/p&gt;&lt;hr size='1'/&gt;&lt;p style='margin:0px;text-align:start;margin-left:4px;;font-size:10.0px;font-family:Times New Roman,serif;color:#000000;'&gt;closed&lt;/p&gt;&lt;hr size='1'/&gt;&lt;p style='margin:0px;text-align:start;margin-left:4px;;font-size:10.0px;font-family:Times New Roman,serif;color:#000000;'&gt;__init__(parent)&lt;br/&gt;closeEvent(event)&lt;/p&gt;" style="verticalAlign=top;align=left;overflow=fill;html=1;rounded=0;shadow=0;comic=0;labelBackgroundColor=none;strokeColor=black;strokeWidth=1;fillColor=#ffffff;" vertex="1" parent="PRCU04RuPEPjNlCsUaEb-2">
                    <mxGeometry x="1816.21" y="2165.6000000000004" width="147.80999999999995" height="91.20000000000005" as="geometry"/>
                </mxCell>
                <mxCell id="PRCU04RuPEPjNlCsUaEb-19" value="&lt;p style='margin:0px;text-align:center;margin-top:4px;;font-size:10.0px;font-family:Times New Roman,serif;color:#000000;'&gt;#ContainerViewTypes&lt;/p&gt;&lt;hr size='1'/&gt;&lt;p style='margin:0px;text-align:start;margin-left:4px;;font-size:10.0px;font-family:Times New Roman,serif;color:#000000;'&gt;to_enum(value)&lt;br/&gt;to_string(value)&lt;/p&gt;" style="verticalAlign=top;align=left;overflow=fill;html=1;rounded=0;shadow=0;comic=0;labelBackgroundColor=none;strokeColor=black;strokeWidth=1;fillColor=#ffffff;" vertex="1" parent="PRCU04RuPEPjNlCsUaEb-2">
                    <mxGeometry x="1981.9900000000007" y="2166" width="188.24" height="90.40000000000009" as="geometry"/>
                </mxCell>
                <mxCell id="PRCU04RuPEPjNlCsUaEb-20" value="&lt;p style='margin:0px;text-align:center;margin-top:4px;;font-size:10.0px;font-family:Times New Roman,serif;color:#000000;'&gt;enum.Enum&lt;/p&gt;&lt;hr size='1'/&gt;&lt;p style='margin:0px;text-align:start;margin-left:4px;;font-size:10.0px;font-family:Times New Roman,serif;color:#000000;'&gt;__dir__()&lt;br/&gt;__format__(format_spec)&lt;br/&gt;__hash__()&lt;br/&gt;__new__(cls, value)&lt;br/&gt;__reduce_ex__(proto)&lt;br/&gt;__repr__()&lt;br/&gt;__str__()&lt;br/&gt;_generate_next_value_(name, start, count, last_values)&lt;br/&gt;_missing_(cls, value)&lt;br/&gt;name()&lt;br/&gt;value()&lt;/p&gt;" style="verticalAlign=top;align=left;overflow=fill;html=1;rounded=0;shadow=0;comic=0;labelBackgroundColor=none;strokeColor=black;strokeWidth=1;fillColor=#ffffff;" vertex="1" parent="PRCU04RuPEPjNlCsUaEb-2">
                    <mxGeometry x="1914.1699999999996" y="1567.4" width="323.8900000000001" height="241.5999999999999" as="geometry"/>
                </mxCell>
                <mxCell id="PRCU04RuPEPjNlCsUaEb-21" style="rounded=1;html=1;exitX=0.5;exitY=0;entryX=0.5;entryY=1;jettySize=auto;curved=0;endArrow=block;dashed=0;endFill=1;" edge="1" parent="PRCU04RuPEPjNlCsUaEb-2" source="PRCU04RuPEPjNlCsUaEb-19" target="PRCU04RuPEPjNlCsUaEb-20">
                    <mxGeometry relative="1" as="geometry"/>
                </mxCell>
                <mxCell id="PRCU04RuPEPjNlCsUaEb-22" value="&lt;p style='margin:0px;text-align:center;margin-top:4px;;font-size:10.0px;font-family:Times New Roman,serif;color:#000000;'&gt;#DualSlider&lt;/p&gt;&lt;hr size='1'/&gt;&lt;p style='margin:0px;text-align:start;margin-left:4px;;font-size:10.0px;font-family:Times New Roman,serif;color:#000000;'&gt;LowerHandle : int&lt;br/&gt;UpperHandle : int&lt;br/&gt;_active_handle : NoneType, int&lt;br/&gt;_lower_position : int&lt;br/&gt;_range : list&lt;br/&gt;_upper_position : int&lt;br/&gt;sliderMoved&lt;br/&gt;sliderPressed&lt;br/&gt;sliderReleased&lt;br/&gt;valueChanged&lt;/p&gt;&lt;hr size='1'/&gt;&lt;p style='margin:0px;text-align:start;margin-left:4px;;font-size:10.0px;font-family:Times New Roman,serif;color:#000000;'&gt;__init__(parent)&lt;br/&gt;_constrain_value(handle, value)&lt;br/&gt;_get_common_option()&lt;br/&gt;_position_to_logical(pos)&lt;br/&gt;_width_to_logical(value)&lt;br/&gt;lowerPosition()&lt;br/&gt;minimumSizeHint()&lt;br/&gt;mouseMoveEvent(evt)&lt;br/&gt;mousePressEvent(evt)&lt;br/&gt;mouseReleaseEvent(evt)&lt;br/&gt;paintEvent(evt)&lt;br/&gt;positions()&lt;br/&gt;range()&lt;br/&gt;setLowerPosition(value)&lt;br/&gt;setPositions(lower, upper)&lt;br/&gt;setRange(min_val, max_val)&lt;br/&gt;setUpperPosition(value)&lt;br/&gt;sizeHint()&lt;br/&gt;upperPosition()&lt;/p&gt;" style="verticalAlign=top;align=left;overflow=fill;html=1;rounded=0;shadow=0;comic=0;labelBackgroundColor=none;strokeColor=black;strokeWidth=1;fillColor=#ffffff;" vertex="1" parent="PRCU04RuPEPjNlCsUaEb-2">
                    <mxGeometry x="2188.3200000000006" y="1947.1999999999998" width="195.58999999999992" height="528.0000000000002" as="geometry"/>
                </mxCell>
                <mxCell id="PRCU04RuPEPjNlCsUaEb-23" value="&lt;p style='margin:0px;text-align:center;margin-top:4px;;font-size:10.0px;font-family:Times New Roman,serif;color:#000000;'&gt;#DynamicDoubleSpinBox&lt;/p&gt;&lt;hr size='1'/&gt;&lt;p style='margin:0px;text-align:start;margin-left:4px;;font-size:10.0px;font-family:Times New Roman,serif;color:#000000;'&gt;valid_chars&lt;/p&gt;&lt;hr size='1'/&gt;&lt;p style='margin:0px;text-align:start;margin-left:4px;;font-size:10.0px;font-family:Times New Roman,serif;color:#000000;'&gt;__init__(parent)&lt;br/&gt;validate(text, pos)&lt;/p&gt;" style="verticalAlign=top;align=left;overflow=fill;html=1;rounded=0;shadow=0;comic=0;labelBackgroundColor=none;strokeColor=black;strokeWidth=1;fillColor=#ffffff;" vertex="1" parent="PRCU04RuPEPjNlCsUaEb-2">
                    <mxGeometry x="2402.090000000001" y="2165.6000000000004" width="210.03999999999996" height="91.20000000000005" as="geometry"/>
                </mxCell>
                <mxCell id="PRCU04RuPEPjNlCsUaEb-24" value="&lt;p style='margin:0px;text-align:center;margin-top:4px;;font-size:10.0px;font-family:Times New Roman,serif;color:#000000;'&gt;#InputListenerWidget&lt;/p&gt;&lt;hr size='1'/&gt;&lt;p style='margin:0px;text-align:start;margin-left:4px;;font-size:10.0px;font-family:Times New Roman,serif;color:#000000;'&gt;_abort_timer&lt;br/&gt;_event_types&lt;br/&gt;_multi_key_storage : list&lt;br/&gt;_multi_keys : bool&lt;br/&gt;_return_kb_event : bool&lt;br/&gt;callback&lt;br/&gt;filter_func : NoneType&lt;br/&gt;main_layout&lt;/p&gt;&lt;hr size='1'/&gt;&lt;p style='margin:0px;text-align:start;margin-left:4px;;font-size:10.0px;font-family:Times New Roman,serif;color:#000000;'&gt;__init__(callback, event_types, return_kb_event, multi_keys, filter_func, parent)&lt;br/&gt;_joy_event_cb(event)&lt;br/&gt;_kb_event_cb(event)&lt;br/&gt;_mouse_event_cb(event)&lt;br/&gt;_valid_event_types_string()&lt;br/&gt;closeEvent(evt)&lt;/p&gt;" style="verticalAlign=top;align=left;overflow=fill;html=1;rounded=0;shadow=0;comic=0;labelBackgroundColor=none;strokeColor=black;strokeWidth=1;fillColor=#ffffff;" vertex="1" parent="PRCU04RuPEPjNlCsUaEb-2">
                    <mxGeometry x="690.8499999999999" y="468.4000000000001" width="468.53000000000003" height="276" as="geometry"/>
                </mxCell>
                <mxCell id="PRCU04RuPEPjNlCsUaEb-25" value="&lt;p style='margin:0px;text-align:center;margin-top:4px;;font-size:10.0px;font-family:Times New Roman,serif;color:#000000;'&gt;#JoystickSelector&lt;/p&gt;&lt;hr size='1'/&gt;&lt;p style='margin:0px;text-align:start;margin-left:4px;;font-size:10.0px;font-family:Times New Roman,serif;color:#000000;'&gt;__init__(change_cb, valid_types, parent)&lt;br/&gt;_device_identifier(device)&lt;br/&gt;_format_device_name(device)&lt;br/&gt;_initialize()&lt;/p&gt;" style="verticalAlign=top;align=left;overflow=fill;html=1;rounded=0;shadow=0;comic=0;labelBackgroundColor=none;strokeColor=black;strokeWidth=1;fillColor=#ffffff;" vertex="1" parent="PRCU04RuPEPjNlCsUaEb-2">
                    <mxGeometry x="693.4299999999998" y="2149.2" width="245.37" height="124" as="geometry"/>
                </mxCell>
                <mxCell id="PRCU04RuPEPjNlCsUaEb-26" style="rounded=1;html=1;exitX=0.5;exitY=0;entryX=0.311;entryY=1;jettySize=auto;curved=0;endArrow=block;dashed=0;endFill=1;" edge="1" parent="PRCU04RuPEPjNlCsUaEb-2" source="PRCU04RuPEPjNlCsUaEb-25" target="PRCU04RuPEPjNlCsUaEb-14">
                    <mxGeometry relative="1" as="geometry"/>
                </mxCell>
                <mxCell id="PRCU04RuPEPjNlCsUaEb-27" value="&lt;p style='margin:0px;text-align:center;margin-top:4px;;font-size:10.0px;font-family:Times New Roman,serif;color:#000000;'&gt;#LeftRightPushButton&lt;/p&gt;&lt;hr size='1'/&gt;&lt;p style='margin:0px;text-align:start;margin-left:4px;;font-size:10.0px;font-family:Times New Roman,serif;color:#000000;'&gt;clicked_right&lt;/p&gt;&lt;hr size='1'/&gt;&lt;p style='margin:0px;text-align:start;margin-left:4px;;font-size:10.0px;font-family:Times New Roman,serif;color:#000000;'&gt;__init__(label, parent)&lt;br/&gt;mousePressEvent(event)&lt;/p&gt;" style="verticalAlign=top;align=left;overflow=fill;html=1;rounded=0;shadow=0;comic=0;labelBackgroundColor=none;strokeColor=black;strokeWidth=1;fillColor=#ffffff;" vertex="1" parent="PRCU04RuPEPjNlCsUaEb-2">
                    <mxGeometry x="2629.9700000000003" y="2165.6000000000004" width="188.2800000000002" height="91.20000000000005" as="geometry"/>
                </mxCell>
                <mxCell id="PRCU04RuPEPjNlCsUaEb-28" value="&lt;p style='margin:0px;text-align:center;margin-top:4px;;font-size:10.0px;font-family:Times New Roman,serif;color:#000000;'&gt;#ModeWidget&lt;/p&gt;&lt;hr size='1'/&gt;&lt;p style='margin:0px;text-align:start;margin-left:4px;;font-size:10.0px;font-family:Times New Roman,serif;color:#000000;'&gt;label&lt;br/&gt;main_layout&lt;br/&gt;mode_changed&lt;br/&gt;mode_list : list&lt;br/&gt;profile : NoneType&lt;br/&gt;selector&lt;/p&gt;&lt;hr size='1'/&gt;&lt;p style='margin:0px;text-align:start;margin-left:4px;;font-size:10.0px;font-family:Times New Roman,serif;color:#000000;'&gt;__init__(parent)&lt;br/&gt;_create_widget()&lt;br/&gt;_inheritance_tree_to_labels(labels, tree, level)&lt;br/&gt;_mode_changed_cb(idx)&lt;br/&gt;populate_selector(profile_data, current_mode)&lt;/p&gt;" style="verticalAlign=top;align=left;overflow=fill;html=1;rounded=0;shadow=0;comic=0;labelBackgroundColor=none;strokeColor=black;strokeWidth=1;fillColor=#ffffff;" vertex="1" parent="PRCU04RuPEPjNlCsUaEb-2">
                    <mxGeometry x="2835.8900000000003" y="2098.4" width="276.44000000000005" height="225.5999999999999" as="geometry"/>
                </mxCell>
                <mxCell id="PRCU04RuPEPjNlCsUaEb-29" value="&lt;p style='margin:0px;text-align:center;margin-top:4px;;font-size:10.0px;font-family:Times New Roman,serif;color:#000000;'&gt;#NoKeyboardPushButton&lt;/p&gt;&lt;hr size='1'/&gt;&lt;p style='margin:0px;text-align:start;margin-left:4px;;font-size:10.0px;font-family:Times New Roman,serif;color:#000000;'&gt;__init__()&lt;br/&gt;keyPressEvent(event)&lt;/p&gt;" style="verticalAlign=top;align=left;overflow=fill;html=1;rounded=0;shadow=0;comic=0;labelBackgroundColor=none;strokeColor=black;strokeWidth=1;fillColor=#ffffff;" vertex="1" parent="PRCU04RuPEPjNlCsUaEb-2">
                    <mxGeometry x="3130.04" y="2166" width="206.1500000000001" height="90.40000000000009" as="geometry"/>
                </mxCell>
                <mxCell id="PRCU04RuPEPjNlCsUaEb-30" value="&lt;p style='margin:0px;text-align:center;margin-top:4px;;font-size:10.0px;font-family:Times New Roman,serif;color:#000000;'&gt;#VJoySelector&lt;/p&gt;&lt;hr size='1'/&gt;&lt;p style='margin:0px;text-align:start;margin-left:4px;;font-size:10.0px;font-family:Times New Roman,serif;color:#000000;'&gt;invalid_ids : dict&lt;/p&gt;&lt;hr size='1'/&gt;&lt;p style='margin:0px;text-align:start;margin-left:4px;;font-size:10.0px;font-family:Times New Roman,serif;color:#000000;'&gt;__init__(change_cb, valid_types, invalid_ids, parent)&lt;br/&gt;_device_identifier(device)&lt;br/&gt;_format_device_name(device)&lt;br/&gt;_initialize()&lt;/p&gt;" style="verticalAlign=top;align=left;overflow=fill;html=1;rounded=0;shadow=0;comic=0;labelBackgroundColor=none;strokeColor=black;strokeWidth=1;fillColor=#ffffff;" vertex="1" parent="PRCU04RuPEPjNlCsUaEb-2">
                    <mxGeometry x="956.8200000000002" y="2148.8" width="314.5899999999999" height="124.79999999999995" as="geometry"/>
                </mxCell>
                <mxCell id="PRCU04RuPEPjNlCsUaEb-31" style="rounded=1;html=1;exitX=0.5;exitY=0;entryX=0.689;entryY=1;jettySize=auto;curved=0;endArrow=block;dashed=0;endFill=1;" edge="1" parent="PRCU04RuPEPjNlCsUaEb-2" source="PRCU04RuPEPjNlCsUaEb-30" target="PRCU04RuPEPjNlCsUaEb-14">
                    <mxGeometry relative="1" as="geometry"/>
                </mxCell>
                <mxCell id="PRCU04RuPEPjNlCsUaEb-32" value="&lt;p style='margin:0px;text-align:center;margin-top:4px;;font-size:10.0px;font-family:Times New Roman,serif;color:#000000;'&gt;threading.Timer&lt;/p&gt;&lt;hr size='1'/&gt;&lt;p style='margin:0px;text-align:start;margin-left:4px;;font-size:10.0px;font-family:Times New Roman,serif;color:#000000;'&gt;args : list, NoneType&lt;br/&gt;finished&lt;br/&gt;function&lt;br/&gt;interval&lt;br/&gt;kwargs : dict, NoneType&lt;/p&gt;&lt;hr size='1'/&gt;&lt;p style='margin:0px;text-align:start;margin-left:4px;;font-size:10.0px;font-family:Times New Roman,serif;color:#000000;'&gt;__init__(interval, function, args, kwargs)&lt;br/&gt;cancel()&lt;br/&gt;run()&lt;/p&gt;" style="verticalAlign=top;align=left;overflow=fill;html=1;rounded=0;shadow=0;comic=0;labelBackgroundColor=none;strokeColor=black;strokeWidth=1;fillColor=#ffffff;" vertex="1" parent="PRCU04RuPEPjNlCsUaEb-2">
                    <mxGeometry x="707.0300000000002" y="1025" width="246.16999999999996" height="175.20000000000005" as="geometry"/>
                </mxCell>
                <mxCell id="PRCU04RuPEPjNlCsUaEb-33" style="rounded=1;html=1;exitX=1;exitY=0.319;entryX=0;entryY=1;jettySize=auto;curved=0;endArrow=block;dashed=0;endFill=1;" edge="1" parent="PRCU04RuPEPjNlCsUaEb-2" source="PRCU04RuPEPjNlCsUaEb-6" target="PRCU04RuPEPjNlCsUaEb-32">
                    <mxGeometry relative="1" as="geometry">
                        <Array as="points">
                            <mxPoint x="483.80999999999995" y="1323.5700000000002"/>
                            <mxPoint x="698.1100000000001" y="1209.1000000000004"/>
                            <mxPoint x="701.5499999999997" y="1206.9700000000003"/>
                        </Array>
                    </mxGeometry>
                </mxCell>
                <mxCell id="PRCU04RuPEPjNlCsUaEb-34" style="rounded=1;html=1;exitX=0.1;exitY=0;entryX=1;entryY=0.991;jettySize=auto;curved=0;endArrow=block;dashed=0;endFill=1;" edge="1" parent="PRCU04RuPEPjNlCsUaEb-2" source="PRCU04RuPEPjNlCsUaEb-32" target="PRCU04RuPEPjNlCsUaEb-11">
                    <mxGeometry relative="1" as="geometry">
                        <Array as="points">
                            <mxPoint x="731.69" y="1024.67"/>
                            <mxPoint x="682.1100000000001" y="963.3000000000002"/>
                            <mxPoint x="677.8600000000001" y="956.69"/>
                        </Array>
                    </mxGeometry>
                </mxCell>
                <mxCell id="PRCU04RuPEPjNlCsUaEb-35" style="rounded=1;html=1;exitX=0.5;exitY=0;entryX=0.5;entryY=1;jettySize=auto;curved=0;endArrow=block;dashed=0;endFill=1;" edge="1" parent="PRCU04RuPEPjNlCsUaEb-2" source="PRCU04RuPEPjNlCsUaEb-32" target="PRCU04RuPEPjNlCsUaEb-24">
                    <mxGeometry relative="1" as="geometry">
                        <Array as="points">
                            <mxPoint x="827.6500000000001" y="1024.8500000000004"/>
                            <mxPoint x="830.7999999999997" y="981.3000000000002"/>
                            <mxPoint x="878.7199999999998" y="756.4499999999998"/>
                        </Array>
                    </mxGeometry>
                </mxCell>
                <mxCell id="PRCU04RuPEPjNlCsUaEb-36" style="rounded=1;html=1;exitX=0.751;exitY=0;entryX=0.5;entryY=1;jettySize=auto;curved=0;endArrow=block;dashed=0;endFill=1;" edge="1" parent="PRCU04RuPEPjNlCsUaEb-2" source="PRCU04RuPEPjNlCsUaEb-32" target="PRCU04RuPEPjNlCsUaEb-24">
                    <mxGeometry relative="1" as="geometry">
                        <Array as="points">
                            <mxPoint x="891.98" y="1024.9099999999999"/>
                            <mxPoint x="903.1100000000001" y="998.1000000000004"/>
                            <mxPoint x="934.4000000000001" y="757.0300000000002"/>
                        </Array>
                    </mxGeometry>
                </mxCell>
                <mxCell id="PRCU04RuPEPjNlCsUaEb-37" value="&lt;p style='margin:0px;text-align:center;margin-top:4px;;font-size:10.0px;font-family:Times New Roman,serif;color:#000000;'&gt;threading._RLock&lt;/p&gt;&lt;hr size='1'/&gt;&lt;p style='margin:0px;text-align:start;margin-left:4px;;font-size:10.0px;font-family:Times New Roman,serif;color:#000000;'&gt;__enter__&lt;br/&gt;_block&lt;br/&gt;_count : int&lt;br/&gt;_owner : NoneType&lt;/p&gt;&lt;hr size='1'/&gt;&lt;p style='margin:0px;text-align:start;margin-left:4px;;font-size:10.0px;font-family:Times New Roman,serif;color:#000000;'&gt;__exit__(t, v, tb)&lt;br/&gt;__init__()&lt;br/&gt;__repr__()&lt;br/&gt;_acquire_restore(state)&lt;br/&gt;_is_owned()&lt;br/&gt;_release_save()&lt;br/&gt;acquire(blocking, timeout)&lt;br/&gt;release()&lt;/p&gt;" style="verticalAlign=top;align=left;overflow=fill;html=1;rounded=0;shadow=0;comic=0;labelBackgroundColor=none;strokeColor=black;strokeWidth=1;fillColor=#ffffff;" vertex="1" parent="PRCU04RuPEPjNlCsUaEb-2">
                    <mxGeometry x="510.4699999999998" y="2090" width="165.28999999999996" height="242.4000000000001" as="geometry"/>
                </mxCell>
                <mxCell id="PRCU04RuPEPjNlCsUaEb-38" style="rounded=1;html=1;exitX=0.279;exitY=0;entryX=0.931;entryY=1;jettySize=auto;curved=0;endArrow=block;dashed=0;endFill=1;" edge="1" parent="PRCU04RuPEPjNlCsUaEb-2" source="PRCU04RuPEPjNlCsUaEb-37" target="PRCU04RuPEPjNlCsUaEb-4">
                    <mxGeometry relative="1" as="geometry">
                        <Array as="points">
                            <mxPoint x="556.5899999999997" y="2089.91"/>
                            <mxPoint x="501.1100000000001" y="1921.5"/>
                            <mxPoint x="485.96000000000004" y="1879.6000000000004"/>
                        </Array>
                    </mxGeometry>
                </mxCell>
            </root>
        </mxGraphModel>
    </diagram>
    <diagram id="9-w3CTjXuS1j8aOInHe2" name="ui.device_tab">
        <mxGraphModel dx="-385" dy="537" grid="1" gridSize="10" guides="1" tooltips="1" connect="1" arrows="1" fold="1" page="1" pageScale="1" pageWidth="850" pageHeight="1100" math="0" shadow="0">
            <root>
                <mxCell id="P-MG7xoB24pye22Ra7E6-0"/>
                <mxCell id="P-MG7xoB24pye22Ra7E6-1" parent="P-MG7xoB24pye22Ra7E6-0"/>
                <mxCell id="P-MG7xoB24pye22Ra7E6-2" value="ui.device_tab" style="swimlane;fillColor=#1ba1e2;fontColor=#ffffff;strokeColor=#006EAF;" vertex="1" parent="P-MG7xoB24pye22Ra7E6-1">
                    <mxGeometry x="2280" y="130" width="1209.94" height="1030" as="geometry"/>
                </mxCell>
                <mxCell id="P-MG7xoB24pye22Ra7E6-3" value="&lt;p style='margin:0px;text-align:center;margin-top:4px;;font-size:10.0px;font-family:Times New Roman,serif;color:#000000;'&gt;#ActionContainerModel&lt;/p&gt;&lt;hr size='1'/&gt;&lt;p style='margin:0px;text-align:start;margin-left:4px;;font-size:10.0px;font-family:Times New Roman,serif;color:#000000;'&gt;_containers&lt;/p&gt;&lt;hr size='1'/&gt;&lt;p style='margin:0px;text-align:start;margin-left:4px;;font-size:10.0px;font-family:Times New Roman,serif;color:#000000;'&gt;__init__(containers, parent)&lt;br/&gt;add_container(container)&lt;br/&gt;data(index)&lt;br/&gt;remove_container(container)&lt;br/&gt;rows()&lt;/p&gt;" style="verticalAlign=top;align=left;overflow=fill;html=1;rounded=0;shadow=0;comic=0;labelBackgroundColor=none;strokeColor=black;strokeWidth=1;fillColor=#ffffff;" vertex="1" parent="P-MG7xoB24pye22Ra7E6-2">
                    <mxGeometry x="79.94000000000005" y="685" width="210" height="141.60000000000002" as="geometry"/>
                </mxCell>
                <mxCell id="P-MG7xoB24pye22Ra7E6-4" value="&lt;p style='margin:0px;text-align:center;margin-top:4px;;font-size:10.0px;font-family:Times New Roman,serif;color:#000000;'&gt;#InputItemConfiguration&lt;/p&gt;&lt;hr size='1'/&gt;&lt;p style='margin:0px;text-align:start;margin-left:4px;;font-size:10.0px;font-family:Times New Roman,serif;color:#000000;'&gt;action_layout&lt;br/&gt;action_model&lt;br/&gt;action_selector&lt;br/&gt;action_view&lt;br/&gt;always_execute&lt;br/&gt;button_layout&lt;br/&gt;container_selector&lt;br/&gt;description_changed&lt;br/&gt;description_field&lt;br/&gt;description_layout&lt;br/&gt;item_data&lt;br/&gt;main_layout&lt;br/&gt;widget_layout&lt;/p&gt;&lt;hr size='1'/&gt;&lt;p style='margin:0px;text-align:start;margin-left:4px;;font-size:10.0px;font-family:Times New Roman,serif;color:#000000;'&gt;__init__(item_data, parent)&lt;br/&gt;_add_action(action_name)&lt;br/&gt;_add_container(container_name)&lt;br/&gt;_always_execute_cb(state)&lt;br/&gt;_create_description()&lt;br/&gt;_create_dropdowns()&lt;br/&gt;_create_vjoy_dropdowns()&lt;br/&gt;_edit_description_cb(text)&lt;br/&gt;_remove_container(container)&lt;br/&gt;_valid_action_names()&lt;/p&gt;" style="verticalAlign=top;align=left;overflow=fill;html=1;rounded=0;shadow=0;comic=0;labelBackgroundColor=none;strokeColor=black;strokeWidth=1;fillColor=#ffffff;" vertex="1" parent="P-MG7xoB24pye22Ra7E6-2">
                    <mxGeometry x="190" y="120" width="213.88" height="427.20000000000005" as="geometry"/>
                </mxCell>
                <mxCell id="P-MG7xoB24pye22Ra7E6-5" style="rounded=1;html=1;exitX=0.5;exitY=0;entryX=0.22;entryY=1;jettySize=auto;curved=0;endArrow=block;dashed=0;endFill=1;" edge="1" parent="P-MG7xoB24pye22Ra7E6-2" source="P-MG7xoB24pye22Ra7E6-3" target="P-MG7xoB24pye22Ra7E6-4">
                    <mxGeometry relative="1" as="geometry"/>
                </mxCell>
                <mxCell id="P-MG7xoB24pye22Ra7E6-6" value="&lt;p style='margin:0px;text-align:center;margin-top:4px;;font-size:10.0px;font-family:Times New Roman,serif;color:#000000;'&gt;#ActionContainerView&lt;/p&gt;&lt;hr size='1'/&gt;&lt;p style='margin:0px;text-align:start;margin-left:4px;;font-size:10.0px;font-family:Times New Roman,serif;color:#000000;'&gt;main_layout&lt;br/&gt;scroll_area&lt;br/&gt;scroll_layout&lt;br/&gt;scroll_widget&lt;/p&gt;&lt;hr size='1'/&gt;&lt;p style='margin:0px;text-align:start;margin-left:4px;;font-size:10.0px;font-family:Times New Roman,serif;color:#000000;'&gt;__init__(parent)&lt;br/&gt;_create_closed_cb(widget)&lt;br/&gt;redraw()&lt;/p&gt;" style="verticalAlign=top;align=left;overflow=fill;html=1;rounded=0;shadow=0;comic=0;labelBackgroundColor=none;strokeColor=black;strokeWidth=1;fillColor=#ffffff;" vertex="1" parent="P-MG7xoB24pye22Ra7E6-2">
                    <mxGeometry x="308.0500000000002" y="676.5999999999999" width="203.76999999999998" height="158.39999999999998" as="geometry"/>
                </mxCell>
                <mxCell id="P-MG7xoB24pye22Ra7E6-7" style="rounded=1;html=1;exitX=0.396;exitY=0;entryX=0.783;entryY=1;jettySize=auto;curved=0;endArrow=block;dashed=0;endFill=1;" edge="1" parent="P-MG7xoB24pye22Ra7E6-2" source="P-MG7xoB24pye22Ra7E6-6" target="P-MG7xoB24pye22Ra7E6-4">
                    <mxGeometry relative="1" as="geometry"/>
                </mxCell>
                <mxCell id="P-MG7xoB24pye22Ra7E6-8" value="&lt;p style='margin:0px;text-align:center;margin-top:4px;;font-size:10.0px;font-family:Times New Roman,serif;color:#000000;'&gt;#JoystickDeviceTabWidget&lt;/p&gt;&lt;hr size='1'/&gt;&lt;p style='margin:0px;text-align:start;margin-left:4px;;font-size:10.0px;font-family:Times New Roman,serif;color:#000000;'&gt;current_mode&lt;br/&gt;device&lt;br/&gt;device_profile&lt;br/&gt;input_item_list_model&lt;br/&gt;input_item_list_view&lt;br/&gt;left_panel_layout&lt;br/&gt;main_layout&lt;/p&gt;&lt;hr size='1'/&gt;&lt;p style='margin:0px;text-align:start;margin-left:4px;;font-size:10.0px;font-family:Times New Roman,serif;color:#000000;'&gt;__init__(device, device_profile, current_mode, parent)&lt;br/&gt;_create_change_cb(index)&lt;br/&gt;input_item_selected_cb(index)&lt;br/&gt;mode_changed_cb(mode)&lt;br/&gt;refresh()&lt;br/&gt;update_device_label(text)&lt;/p&gt;" style="verticalAlign=top;align=left;overflow=fill;html=1;rounded=0;shadow=0;comic=0;labelBackgroundColor=none;strokeColor=black;strokeWidth=1;fillColor=#ffffff;" vertex="1" parent="P-MG7xoB24pye22Ra7E6-2">
                    <mxGeometry x="529.3899999999999" y="626.2" width="323.09999999999997" height="259.19999999999993" as="geometry"/>
                </mxCell>
                <mxCell id="P-MG7xoB24pye22Ra7E6-9" value="&lt;p style='margin:0px;text-align:center;margin-top:4px;;font-size:10.0px;font-family:Times New Roman,serif;color:#000000;'&gt;#KeyboardDeviceTabWidget&lt;/p&gt;&lt;hr size='1'/&gt;&lt;p style='margin:0px;text-align:start;margin-left:4px;;font-size:10.0px;font-family:Times New Roman,serif;color:#000000;'&gt;button_press_dialog&lt;br/&gt;current_mode&lt;br/&gt;device_profile&lt;br/&gt;input_item_list_model&lt;br/&gt;input_item_list_view&lt;br/&gt;left_panel_layout&lt;br/&gt;main_layout&lt;br/&gt;widget_storage : dict&lt;/p&gt;&lt;hr size='1'/&gt;&lt;p style='margin:0px;text-align:start;margin-left:4px;;font-size:10.0px;font-family:Times New Roman,serif;color:#000000;'&gt;__init__(device_profile, current_mode, parent)&lt;br/&gt;_add_keyboard_key_cb(key)&lt;br/&gt;_create_change_cb(index)&lt;br/&gt;_index_for_key(key)&lt;br/&gt;_record_keyboard_key_cb()&lt;br/&gt;input_item_selected_cb(index)&lt;br/&gt;mode_changed_cb(mode)&lt;br/&gt;refresh()&lt;/p&gt;" style="verticalAlign=top;align=left;overflow=fill;html=1;rounded=0;shadow=0;comic=0;labelBackgroundColor=none;strokeColor=black;strokeWidth=1;fillColor=#ffffff;" vertex="1" parent="P-MG7xoB24pye22Ra7E6-2">
                    <mxGeometry x="870.1600000000003" y="601" width="279.55999999999995" height="309.6" as="geometry"/>
                </mxCell>
            </root>
        </mxGraphModel>
    </diagram>
    <diagram id="ZTV4EncRLR-xKO3bRwEV" name="ui.input_item">
        <mxGraphModel dx="408" dy="1637" grid="1" gridSize="10" guides="1" tooltips="1" connect="1" arrows="1" fold="1" page="1" pageScale="1" pageWidth="850" pageHeight="1100" math="0" shadow="0">
            <root>
                <mxCell id="U_x1Jkp9lxHC6FTQ3eTq-0"/>
                <mxCell id="U_x1Jkp9lxHC6FTQ3eTq-1" parent="U_x1Jkp9lxHC6FTQ3eTq-0"/>
                <mxCell id="U_x1Jkp9lxHC6FTQ3eTq-2" value="ui.input_item" style="swimlane;fillColor=#a20025;fontColor=#ffffff;strokeColor=#6F0000;" parent="U_x1Jkp9lxHC6FTQ3eTq-1" vertex="1">
                    <mxGeometry x="450" y="-920" width="4000" height="980" as="geometry"/>
                </mxCell>
                <mxCell id="U_x1Jkp9lxHC6FTQ3eTq-3" value="&lt;p style='margin:0px;text-align:center;margin-top:4px;;font-size:10.0px;font-family:Times New Roman,serif;color:#000000;'&gt;enum.Enum&lt;/p&gt;&lt;hr size='1'/&gt;&lt;p style='margin:0px;text-align:start;margin-left:4px;;font-size:10.0px;font-family:Times New Roman,serif;color:#000000;'&gt;__dir__()&lt;br/&gt;__format__(format_spec)&lt;br/&gt;__hash__()&lt;br/&gt;__new__(cls, value)&lt;br/&gt;__reduce_ex__(proto)&lt;br/&gt;__repr__()&lt;br/&gt;__str__()&lt;br/&gt;_generate_next_value_(name, start, count, last_values)&lt;br/&gt;_missing_(cls, value)&lt;br/&gt;name()&lt;br/&gt;value()&lt;/p&gt;" style="verticalAlign=top;align=left;overflow=fill;html=1;rounded=0;shadow=0;comic=0;labelBackgroundColor=none;strokeColor=black;strokeWidth=1;fillColor=#ffffff;" parent="U_x1Jkp9lxHC6FTQ3eTq-2" vertex="1">
                    <mxGeometry x="160" y="140" width="323.88" height="241.60000000000002" as="geometry"/>
                </mxCell>
                <mxCell id="U_x1Jkp9lxHC6FTQ3eTq-4" value="&lt;p style='margin:0px;text-align:center;margin-top:4px;;font-size:10.0px;font-family:Times New Roman,serif;color:#000000;'&gt;#AbstractActionWidget&lt;/p&gt;&lt;hr size='1'/&gt;&lt;p style='margin:0px;text-align:start;margin-left:4px;;font-size:10.0px;font-family:Times New Roman,serif;color:#000000;'&gt;action_data&lt;br/&gt;action_modified&lt;br/&gt;main_layout&lt;/p&gt;&lt;hr size='1'/&gt;&lt;p style='margin:0px;text-align:start;margin-left:4px;;font-size:10.0px;font-family:Times New Roman,serif;color:#000000;'&gt;__init__(action_data, layout_type, parent)&lt;br/&gt;_create_ui()&lt;br/&gt;_get_input_type()&lt;br/&gt;_get_profile_root()&lt;br/&gt;_populate_ui()&lt;/p&gt;" style="verticalAlign=top;align=left;overflow=fill;html=1;rounded=0;shadow=0;comic=0;labelBackgroundColor=none;strokeColor=black;strokeWidth=1;fillColor=#ffffff;" parent="U_x1Jkp9lxHC6FTQ3eTq-2" vertex="1">
                    <mxGeometry x="413.1500000000001" y="603.4000000000001" width="251.59000000000003" height="175.2" as="geometry"/>
                </mxCell>
                <mxCell id="U_x1Jkp9lxHC6FTQ3eTq-5" value="&lt;p style='margin:0px;text-align:center;margin-top:4px;;font-size:10.0px;font-family:Times New Roman,serif;color:#000000;'&gt;#AbstractActionWrapper&lt;/p&gt;&lt;hr size='1'/&gt;&lt;p style='margin:0px;text-align:start;margin-left:4px;;font-size:10.0px;font-family:Times New Roman,serif;color:#000000;'&gt;action_widget&lt;br/&gt;dock_widget&lt;br/&gt;main_layout&lt;/p&gt;&lt;hr size='1'/&gt;&lt;p style='margin:0px;text-align:start;margin-left:4px;;font-size:10.0px;font-family:Times New Roman,serif;color:#000000;'&gt;__init__(action_widget, parent)&lt;/p&gt;" style="verticalAlign=top;align=left;overflow=fill;html=1;rounded=0;shadow=0;comic=0;labelBackgroundColor=none;strokeColor=black;strokeWidth=1;fillColor=#ffffff;" parent="U_x1Jkp9lxHC6FTQ3eTq-2" vertex="1">
                    <mxGeometry x="788.6100000000001" y="206.80000000000007" width="214.65999999999997" height="108" as="geometry"/>
                </mxCell>
                <mxCell id="U_x1Jkp9lxHC6FTQ3eTq-6" value="&lt;p style='margin:0px;text-align:center;margin-top:4px;;font-size:10.0px;font-family:Times New Roman,serif;color:#000000;'&gt;#AbstractContainerWidget&lt;/p&gt;&lt;hr size='1'/&gt;&lt;p style='margin:0px;text-align:start;margin-left:4px;;font-size:10.0px;font-family:Times New Roman,serif;color:#000000;'&gt;action_layout&lt;br/&gt;action_tab_widget&lt;br/&gt;action_widgets : list&lt;br/&gt;activation_condition_layout&lt;br/&gt;activation_condition_tab_widget&lt;br/&gt;activation_condition_widget&lt;br/&gt;closed&lt;br/&gt;container_modified&lt;br/&gt;dock_tabs&lt;br/&gt;palette&lt;br/&gt;profile_data&lt;br/&gt;virtual_axis_to_widget : dict&lt;br/&gt;virtual_button_layout&lt;br/&gt;virtual_button_tab_widget&lt;br/&gt;virtual_button_widget&lt;/p&gt;&lt;hr size='1'/&gt;&lt;p style='margin:0px;text-align:start;margin-left:4px;;font-size:10.0px;font-family:Times New Roman,serif;color:#000000;'&gt;__init__(profile_data, parent)&lt;br/&gt;_create_action_set_widget(action_set_data, label, view_type)&lt;br/&gt;_create_action_tab()&lt;br/&gt;_create_action_ui()&lt;br/&gt;_create_activation_condition_tab()&lt;br/&gt;_create_condition_ui()&lt;br/&gt;_create_virtual_button_tab()&lt;br/&gt;_get_widget_index(widget)&lt;br/&gt;_get_window_title()&lt;br/&gt;_handle_interaction(widget, action)&lt;br/&gt;_select_tab(view_type)&lt;br/&gt;_tab_changed(index)&lt;br/&gt;remove(_)&lt;/p&gt;" style="verticalAlign=top;align=left;overflow=fill;html=1;rounded=0;shadow=0;comic=0;labelBackgroundColor=none;strokeColor=black;strokeWidth=1;fillColor=#ffffff;" parent="U_x1Jkp9lxHC6FTQ3eTq-2" vertex="1">
                    <mxGeometry x="1140.3400000000001" y="435.40000000000003" width="361.19999999999993" height="511.2" as="geometry"/>
                </mxCell>
                <mxCell id="U_x1Jkp9lxHC6FTQ3eTq-7" value="&lt;p style='margin:0px;text-align:center;margin-top:4px;;font-size:10.0px;font-family:Times New Roman,serif;color:#000000;'&gt;#ActionLabel&lt;/p&gt;&lt;hr size='1'/&gt;&lt;p style='margin:0px;text-align:start;margin-left:4px;;font-size:10.0px;font-family:Times New Roman,serif;color:#000000;'&gt;__init__(action_entry, parent)&lt;/p&gt;" style="verticalAlign=top;align=left;overflow=fill;html=1;rounded=0;shadow=0;comic=0;labelBackgroundColor=none;strokeColor=black;strokeWidth=1;fillColor=#ffffff;" parent="U_x1Jkp9lxHC6FTQ3eTq-2" vertex="1">
                    <mxGeometry x="1519.9700000000003" y="654.2" width="183.94000000000005" height="73.59999999999991" as="geometry"/>
                </mxCell>
                <mxCell id="U_x1Jkp9lxHC6FTQ3eTq-8" value="&lt;p style='margin:0px;text-align:center;margin-top:4px;;font-size:10.0px;font-family:Times New Roman,serif;color:#000000;'&gt;#ActionSetModel&lt;/p&gt;&lt;hr size='1'/&gt;&lt;p style='margin:0px;text-align:start;margin-left:4px;;font-size:10.0px;font-family:Times New Roman,serif;color:#000000;'&gt;_action_set : list&lt;/p&gt;&lt;hr size='1'/&gt;&lt;p style='margin:0px;text-align:start;margin-left:4px;;font-size:10.0px;font-family:Times New Roman,serif;color:#000000;'&gt;__init__(action_set)&lt;br/&gt;add_action(action)&lt;br/&gt;data(index)&lt;br/&gt;remove_action(action)&lt;br/&gt;rows()&lt;/p&gt;" style="verticalAlign=top;align=left;overflow=fill;html=1;rounded=0;shadow=0;comic=0;labelBackgroundColor=none;strokeColor=black;strokeWidth=1;fillColor=#ffffff;" parent="U_x1Jkp9lxHC6FTQ3eTq-2" vertex="1">
                    <mxGeometry x="1721.5900000000001" y="620.2" width="172.71000000000004" height="141.5999999999999" as="geometry"/>
                </mxCell>
                <mxCell id="U_x1Jkp9lxHC6FTQ3eTq-9" value="&lt;p style='margin:0px;text-align:center;margin-top:4px;;font-size:10.0px;font-family:Times New Roman,serif;color:#000000;'&gt;#ActionSetView&lt;/p&gt;&lt;hr size='1'/&gt;&lt;p style='margin:0px;text-align:start;margin-left:4px;;font-size:10.0px;font-family:Times New Roman,serif;color:#000000;'&gt;action_layout&lt;br/&gt;action_selector&lt;br/&gt;allowed_interactions&lt;br/&gt;control_delete&lt;br/&gt;control_edit&lt;br/&gt;control_move_down&lt;br/&gt;control_move_up&lt;br/&gt;controls_layout&lt;br/&gt;group_layout&lt;br/&gt;group_widget&lt;br/&gt;interacted&lt;br/&gt;label&lt;br/&gt;main_layout&lt;br/&gt;profile_data&lt;br/&gt;view_type&lt;/p&gt;&lt;hr size='1'/&gt;&lt;p style='margin:0px;text-align:start;margin-left:4px;;font-size:10.0px;font-family:Times New Roman,serif;color:#000000;'&gt;__init__(profile_data, label, view_type, parent)&lt;br/&gt;_add_action(action_name)&lt;br/&gt;_create_closed_cb(widget)&lt;br/&gt;_create_edit_controls()&lt;br/&gt;redraw()&lt;/p&gt;" style="verticalAlign=top;align=left;overflow=fill;html=1;rounded=0;shadow=0;comic=0;labelBackgroundColor=none;strokeColor=black;strokeWidth=1;fillColor=#ffffff;" parent="U_x1Jkp9lxHC6FTQ3eTq-2" vertex="1">
                    <mxGeometry x="1912.38" y="502.6" width="281.1299999999999" height="376.79999999999995" as="geometry"/>
                </mxCell>
                <mxCell id="U_x1Jkp9lxHC6FTQ3eTq-10" value="&lt;p style='margin:0px;text-align:center;margin-top:4px;;font-size:10.0px;font-family:Times New Roman,serif;color:#000000;'&gt;#BasicActionWrapper&lt;/p&gt;&lt;hr size='1'/&gt;&lt;p style='margin:0px;text-align:start;margin-left:4px;;font-size:10.0px;font-family:Times New Roman,serif;color:#000000;'&gt;closed&lt;/p&gt;&lt;hr size='1'/&gt;&lt;p style='margin:0px;text-align:start;margin-left:4px;;font-size:10.0px;font-family:Times New Roman,serif;color:#000000;'&gt;__init__(action_widget, parent)&lt;br/&gt;remove(_)&lt;/p&gt;" style="verticalAlign=top;align=left;overflow=fill;html=1;rounded=0;shadow=0;comic=0;labelBackgroundColor=none;strokeColor=black;strokeWidth=1;fillColor=#ffffff;" parent="U_x1Jkp9lxHC6FTQ3eTq-2" vertex="1">
                    <mxGeometry x="682.77" y="645.4000000000001" width="198.34000000000003" height="91.19999999999999" as="geometry"/>
                </mxCell>
                <mxCell id="U_x1Jkp9lxHC6FTQ3eTq-11" style="rounded=1;html=1;exitX=0.5;exitY=0;entryX=0.5;entryY=1;jettySize=auto;curved=0;endArrow=block;dashed=0;endFill=1;" parent="U_x1Jkp9lxHC6FTQ3eTq-2" source="U_x1Jkp9lxHC6FTQ3eTq-10" target="U_x1Jkp9lxHC6FTQ3eTq-5" edge="1">
                    <mxGeometry relative="1" as="geometry"/>
                </mxCell>
                <mxCell id="U_x1Jkp9lxHC6FTQ3eTq-12" value="&lt;p style='margin:0px;text-align:center;margin-top:4px;;font-size:10.0px;font-family:Times New Roman,serif;color:#000000;'&gt;#ConditionActionWrapper&lt;/p&gt;&lt;hr size='1'/&gt;&lt;p style='margin:0px;text-align:start;margin-left:4px;;font-size:10.0px;font-family:Times New Roman,serif;color:#000000;'&gt;condition_model&lt;br/&gt;condition_view&lt;/p&gt;&lt;hr size='1'/&gt;&lt;p style='margin:0px;text-align:start;margin-left:4px;;font-size:10.0px;font-family:Times New Roman,serif;color:#000000;'&gt;__init__(action_widget, parent)&lt;/p&gt;" style="verticalAlign=top;align=left;overflow=fill;html=1;rounded=0;shadow=0;comic=0;labelBackgroundColor=none;strokeColor=black;strokeWidth=1;fillColor=#ffffff;" parent="U_x1Jkp9lxHC6FTQ3eTq-2" vertex="1">
                    <mxGeometry x="899.3200000000002" y="645.4000000000001" width="223.2399999999999" height="91.19999999999999" as="geometry"/>
                </mxCell>
                <mxCell id="U_x1Jkp9lxHC6FTQ3eTq-13" style="rounded=1;html=1;exitX=0.5;exitY=0;entryX=0.5;entryY=1;jettySize=auto;curved=0;endArrow=block;dashed=0;endFill=1;" parent="U_x1Jkp9lxHC6FTQ3eTq-2" source="U_x1Jkp9lxHC6FTQ3eTq-12" target="U_x1Jkp9lxHC6FTQ3eTq-5" edge="1">
                    <mxGeometry relative="1" as="geometry"/>
                </mxCell>
                <mxCell id="U_x1Jkp9lxHC6FTQ3eTq-14" value="&lt;p style='margin:0px;text-align:center;margin-top:4px;;font-size:10.0px;font-family:Times New Roman,serif;color:#000000;'&gt;#ContainerSelector&lt;/p&gt;&lt;hr size='1'/&gt;&lt;p style='margin:0px;text-align:start;margin-left:4px;;font-size:10.0px;font-family:Times New Roman,serif;color:#000000;'&gt;add_button&lt;br/&gt;container_added&lt;br/&gt;container_dropdown&lt;br/&gt;input_type&lt;br/&gt;main_layout&lt;/p&gt;&lt;hr size='1'/&gt;&lt;p style='margin:0px;text-align:start;margin-left:4px;;font-size:10.0px;font-family:Times New Roman,serif;color:#000000;'&gt;__init__(input_type, parent)&lt;br/&gt;_add_container(clicked)&lt;br/&gt;_valid_container_list()&lt;/p&gt;" style="verticalAlign=top;align=left;overflow=fill;html=1;rounded=0;shadow=0;comic=0;labelBackgroundColor=none;strokeColor=black;strokeWidth=1;fillColor=#ffffff;" parent="U_x1Jkp9lxHC6FTQ3eTq-2" vertex="1">
                    <mxGeometry x="2211.32" y="603.4000000000001" width="181.23999999999978" height="175.2" as="geometry"/>
                </mxCell>
                <mxCell id="U_x1Jkp9lxHC6FTQ3eTq-15" value="&lt;p style='margin:0px;text-align:center;margin-top:4px;;font-size:10.0px;font-family:Times New Roman,serif;color:#000000;'&gt;#InputIdentifier&lt;/p&gt;&lt;hr size='1'/&gt;&lt;p style='margin:0px;text-align:start;margin-left:4px;;font-size:10.0px;font-family:Times New Roman,serif;color:#000000;'&gt;_device_type&lt;br/&gt;_input_id&lt;br/&gt;_input_type&lt;br/&gt;device_type&lt;br/&gt;input_id&lt;br/&gt;input_type&lt;/p&gt;&lt;hr size='1'/&gt;&lt;p style='margin:0px;text-align:start;margin-left:4px;;font-size:10.0px;font-family:Times New Roman,serif;color:#000000;'&gt;__init__(input_type, input_id, device_type)&lt;/p&gt;" style="verticalAlign=top;align=left;overflow=fill;html=1;rounded=0;shadow=0;comic=0;labelBackgroundColor=none;strokeColor=black;strokeWidth=1;fillColor=#ffffff;" parent="U_x1Jkp9lxHC6FTQ3eTq-2" vertex="1">
                    <mxGeometry x="2410.85" y="611.8" width="260.1800000000003" height="158.40000000000003" as="geometry"/>
                </mxCell>
                <mxCell id="U_x1Jkp9lxHC6FTQ3eTq-16" value="&lt;p style='margin:0px;text-align:center;margin-top:4px;;font-size:10.0px;font-family:Times New Roman,serif;color:#000000;'&gt;#InputItemButton&lt;/p&gt;&lt;hr size='1'/&gt;&lt;p style='margin:0px;text-align:start;margin-left:4px;;font-size:10.0px;font-family:Times New Roman,serif;color:#000000;'&gt;_description_widget&lt;br/&gt;_icon_layout&lt;br/&gt;_icons : list&lt;br/&gt;_label_widget&lt;br/&gt;identifier&lt;br/&gt;main_layout&lt;br/&gt;selected&lt;/p&gt;&lt;hr size='1'/&gt;&lt;p style='margin:0px;text-align:start;margin-left:4px;;font-size:10.0px;font-family:Times New Roman,serif;color:#000000;'&gt;__init__(identifier, parent)&lt;br/&gt;create_action_icons(profile_data)&lt;br/&gt;mousePressEvent(event)&lt;br/&gt;update_description(description)&lt;/p&gt;" style="verticalAlign=top;align=left;overflow=fill;html=1;rounded=0;shadow=0;comic=0;labelBackgroundColor=none;strokeColor=black;strokeWidth=1;fillColor=#ffffff;" parent="U_x1Jkp9lxHC6FTQ3eTq-2" vertex="1">
                    <mxGeometry x="2688.88" y="578.2" width="204.1199999999999" height="225.5999999999999" as="geometry"/>
                </mxCell>
                <mxCell id="U_x1Jkp9lxHC6FTQ3eTq-17" value="&lt;p style='margin:0px;text-align:center;margin-top:4px;;font-size:10.0px;font-family:Times New Roman,serif;color:#000000;'&gt;#InputItemListModel&lt;/p&gt;&lt;hr size='1'/&gt;&lt;p style='margin:0px;text-align:start;margin-left:4px;;font-size:10.0px;font-family:Times New Roman,serif;color:#000000;'&gt;_device_data&lt;br/&gt;_mode&lt;br/&gt;mode&lt;/p&gt;&lt;hr size='1'/&gt;&lt;p style='margin:0px;text-align:start;margin-left:4px;;font-size:10.0px;font-family:Times New Roman,serif;color:#000000;'&gt;__init__(device_data, mode)&lt;br/&gt;data(index)&lt;br/&gt;event_to_index(event)&lt;br/&gt;rows()&lt;/p&gt;" style="verticalAlign=top;align=left;overflow=fill;html=1;rounded=0;shadow=0;comic=0;labelBackgroundColor=none;strokeColor=black;strokeWidth=1;fillColor=#ffffff;" parent="U_x1Jkp9lxHC6FTQ3eTq-2" vertex="1">
                    <mxGeometry x="2911.09" y="611.8" width="193.69999999999982" height="158.40000000000003" as="geometry"/>
                </mxCell>
                <mxCell id="U_x1Jkp9lxHC6FTQ3eTq-18" value="&lt;p style='margin:0px;text-align:center;margin-top:4px;;font-size:10.0px;font-family:Times New Roman,serif;color:#000000;'&gt;#InputItemListView&lt;/p&gt;&lt;hr size='1'/&gt;&lt;p style='margin:0px;text-align:start;margin-left:4px;;font-size:10.0px;font-family:Times New Roman,serif;color:#000000;'&gt;current_index : NoneType&lt;br/&gt;main_layout&lt;br/&gt;scroll_area&lt;br/&gt;scroll_layout&lt;br/&gt;scroll_widget&lt;br/&gt;shown_input_types : list&lt;br/&gt;type_to_string : dict&lt;/p&gt;&lt;hr size='1'/&gt;&lt;p style='margin:0px;text-align:start;margin-left:4px;;font-size:10.0px;font-family:Times New Roman,serif;color:#000000;'&gt;__init__(parent)&lt;br/&gt;_create_selection_callback(index)&lt;br/&gt;limit_input_types(types)&lt;br/&gt;redraw()&lt;br/&gt;redraw_index(index)&lt;br/&gt;select_item(index, emit_signal)&lt;/p&gt;" style="verticalAlign=top;align=left;overflow=fill;html=1;rounded=0;shadow=0;comic=0;labelBackgroundColor=none;strokeColor=black;strokeWidth=1;fillColor=#ffffff;" parent="U_x1Jkp9lxHC6FTQ3eTq-2" vertex="1">
                    <mxGeometry x="3122.33" y="561.4000000000001" width="207.23000000000002" height="259.2" as="geometry"/>
                </mxCell>
                <mxCell id="U_x1Jkp9lxHC6FTQ3eTq-19" value="&lt;p style='margin:0px;text-align:center;margin-top:4px;;font-size:10.0px;font-family:Times New Roman,serif;color:#000000;'&gt;#Interactions&lt;/p&gt;&lt;hr size='1'/&gt;&lt;p style='margin:0px;text-align:center;margin-top:4px;;font-size:10.0px;font-family:Times New Roman,serif;color:#000000;'&gt; &lt;/p&gt;" style="verticalAlign=top;align=left;overflow=fill;html=1;rounded=0;shadow=0;comic=0;labelBackgroundColor=none;strokeColor=black;strokeWidth=1;fillColor=#ffffff;" parent="U_x1Jkp9lxHC6FTQ3eTq-2" vertex="1">
                    <mxGeometry x="248.81999999999994" y="654.2" width="146.24" height="73.59999999999991" as="geometry"/>
                </mxCell>
                <mxCell id="U_x1Jkp9lxHC6FTQ3eTq-20" style="rounded=1;html=1;exitX=0.5;exitY=0;entryX=0.5;entryY=1;jettySize=auto;curved=0;endArrow=block;dashed=0;endFill=1;" parent="U_x1Jkp9lxHC6FTQ3eTq-2" source="U_x1Jkp9lxHC6FTQ3eTq-19" target="U_x1Jkp9lxHC6FTQ3eTq-3" edge="1">
                    <mxGeometry relative="1" as="geometry"/>
                </mxCell>
                <mxCell id="U_x1Jkp9lxHC6FTQ3eTq-21" value="&lt;p style='margin:0px;text-align:center;margin-top:4px;;font-size:10.0px;font-family:Times New Roman,serif;color:#000000;'&gt;#TitleBar&lt;/p&gt;&lt;hr size='1'/&gt;&lt;p style='margin:0px;text-align:start;margin-left:4px;;font-size:10.0px;font-family:Times New Roman,serif;color:#000000;'&gt;close_button&lt;br/&gt;help_button&lt;br/&gt;hint&lt;br/&gt;label&lt;br/&gt;layout&lt;/p&gt;&lt;hr size='1'/&gt;&lt;p style='margin:0px;text-align:start;margin-left:4px;;font-size:10.0px;font-family:Times New Roman,serif;color:#000000;'&gt;__init__(label, hint, close_cb, parent)&lt;br/&gt;_show_hint()&lt;/p&gt;" style="verticalAlign=top;align=left;overflow=fill;html=1;rounded=0;shadow=0;comic=0;labelBackgroundColor=none;strokeColor=black;strokeWidth=1;fillColor=#ffffff;" parent="U_x1Jkp9lxHC6FTQ3eTq-2" vertex="1">
                    <mxGeometry x="3316.9699999999993" y="181.60000000000002" width="225.94000000000005" height="158.39999999999998" as="geometry"/>
                </mxCell>
                <mxCell id="U_x1Jkp9lxHC6FTQ3eTq-22" value="&lt;p style='margin:0px;text-align:center;margin-top:4px;;font-size:10.0px;font-family:Times New Roman,serif;color:#000000;'&gt;#TitleBarButton&lt;/p&gt;&lt;hr size='1'/&gt;&lt;p style='margin:0px;text-align:start;margin-left:4px;;font-size:10.0px;font-family:Times New Roman,serif;color:#000000;'&gt;__init__(parent)&lt;br/&gt;enterEvent(event)&lt;br/&gt;leaveEvent(event)&lt;br/&gt;paintEvent(event)&lt;br/&gt;sizeHint()&lt;/p&gt;" style="verticalAlign=top;align=left;overflow=fill;html=1;rounded=0;shadow=0;comic=0;labelBackgroundColor=none;strokeColor=black;strokeWidth=1;fillColor=#ffffff;" parent="U_x1Jkp9lxHC6FTQ3eTq-2" vertex="1">
                    <mxGeometry x="3347.4799999999996" y="620.6" width="164.92999999999984" height="140.80000000000007" as="geometry"/>
                </mxCell>
                <mxCell id="U_x1Jkp9lxHC6FTQ3eTq-23" style="rounded=1;html=1;exitX=0.364;exitY=0;entryX=0.354;entryY=1;jettySize=auto;curved=1;endArrow=block;dashed=0;endFill=1;" parent="U_x1Jkp9lxHC6FTQ3eTq-2" source="U_x1Jkp9lxHC6FTQ3eTq-22" target="U_x1Jkp9lxHC6FTQ3eTq-21" edge="1">
                    <mxGeometry relative="1" as="geometry">
                        <Array as="points">
                            <mxPoint x="3407.51" y="620.57"/>
                            <mxPoint x="3386.0599999999995" y="400.1"/>
                            <mxPoint x="3396.9400000000005" y="352.09000000000003"/>
                        </Array>
                    </mxGeometry>
                </mxCell>
                <mxCell id="U_x1Jkp9lxHC6FTQ3eTq-24" style="rounded=1;html=1;exitX=0.5;exitY=0;entryX=0.5;entryY=1;jettySize=auto;curved=1;endArrow=block;dashed=0;endFill=1;" parent="U_x1Jkp9lxHC6FTQ3eTq-2" source="U_x1Jkp9lxHC6FTQ3eTq-22" target="U_x1Jkp9lxHC6FTQ3eTq-21" edge="1">
                    <mxGeometry relative="1" as="geometry">
                        <Array as="points">
                            <mxPoint x="3441.75" y="620.58"/>
                            <mxPoint x="3452.9400000000005" y="400.1"/>
                            <mxPoint x="3447.17" y="352.18000000000006"/>
                        </Array>
                    </mxGeometry>
                </mxCell>
            </root>
        </mxGraphModel>
    </diagram>
    <diagram id="AxTdCvfMDcrA93nlBZPm" name="Page-6">
        <mxGraphModel dx="326" dy="1530" grid="1" gridSize="10" guides="1" tooltips="1" connect="1" arrows="1" fold="1" page="1" pageScale="1" pageWidth="850" pageHeight="1100" math="0" shadow="0">
            <root>
                <mxCell id="4AKRtzVXNAth7LrOjhMr-0"/>
                <mxCell id="4AKRtzVXNAth7LrOjhMr-1" parent="4AKRtzVXNAth7LrOjhMr-0"/>
                <mxCell id="4AKRtzVXNAth7LrOjhMr-2" value="action_plugins.remap" style="swimlane;fillColor=#60a917;fontColor=#ffffff;strokeColor=#2D7600;" vertex="1" parent="4AKRtzVXNAth7LrOjhMr-1">
                    <mxGeometry x="10" y="-50" width="620" height="2840" as="geometry"/>
                </mxCell>
                <mxCell id="4AKRtzVXNAth7LrOjhMr-3" value="&lt;p style=&quot;margin: 0px ; text-align: center ; margin-top: 4px ; font-family: &amp;#34;times new roman&amp;#34; , serif ; color: #000000&quot;&gt;#Remap&amp;nbsp;&lt;/p&gt;&lt;hr size=&quot;1&quot;&gt;&lt;p style=&quot;margin: 0px ; margin-left: 4px ; font-family: &amp;#34;times new roman&amp;#34; , serif ; color: #000000&quot;&gt;axis_mode : str&lt;br&gt;axis_scaling : float&lt;br&gt;default_button_activation : tuple&lt;br&gt;functor&lt;br&gt;input_type&lt;br&gt;input_types : list&lt;br&gt;name : str&lt;br&gt;tag : str&lt;br&gt;vjoy_device_id : NoneType&lt;br&gt;vjoy_input_id : NoneType&lt;br&gt;widget&lt;/p&gt;&lt;hr size=&quot;1&quot;&gt;&lt;p style=&quot;margin: 0px ; margin-left: 4px ; font-family: &amp;#34;times new roman&amp;#34; , serif ; color: #000000&quot;&gt;__init__(parent)&lt;br&gt;_generate_xml()&lt;br&gt;_is_valid()&lt;br&gt;_parse_xml(node)&lt;br&gt;icon()&lt;br&gt;requires_virtual_button()&lt;/p&gt;" style="verticalAlign=top;align=left;overflow=fill;html=1;rounded=0;shadow=0;comic=0;labelBackgroundColor=none;strokeColor=black;strokeWidth=1;fillColor=#ffffff;" vertex="1" parent="4AKRtzVXNAth7LrOjhMr-2">
                    <mxGeometry x="166.85000000000002" y="52" width="198.73" height="326.39999999999964" as="geometry"/>
                </mxCell>
                <mxCell id="4AKRtzVXNAth7LrOjhMr-4" value="&lt;p style='margin:0px;text-align:center;margin-top:4px;;font-size:10.0px;font-family:Times New Roman,serif;color:#000000;'&gt;#RemapFunctor&lt;/p&gt;&lt;hr size='1'/&gt;&lt;p style='margin:0px;text-align:start;margin-left:4px;;font-size:10.0px;font-family:Times New Roman,serif;color:#000000;'&gt;axis_delta_value : float&lt;br/&gt;axis_mode&lt;br/&gt;axis_scaling&lt;br/&gt;axis_value : float&lt;br/&gt;input_type&lt;br/&gt;needs_auto_release : bool&lt;br/&gt;should_stop_thread : bool&lt;br/&gt;thread : NoneType&lt;br/&gt;thread_last_update&lt;br/&gt;thread_running : bool&lt;br/&gt;vjoy_device_id&lt;br/&gt;vjoy_input_id&lt;/p&gt;&lt;hr size='1'/&gt;&lt;p style='margin:0px;text-align:start;margin-left:4px;;font-size:10.0px;font-family:Times New Roman,serif;color:#000000;'&gt;__init__(action)&lt;br/&gt;_check_for_auto_release(action)&lt;br/&gt;process_event(event, value)&lt;br/&gt;relative_axis_thread()&lt;/p&gt;" style="verticalAlign=top;align=left;overflow=fill;html=1;rounded=0;shadow=0;comic=0;labelBackgroundColor=none;strokeColor=black;strokeWidth=1;fillColor=#ffffff;" vertex="1" parent="4AKRtzVXNAth7LrOjhMr-2">
                    <mxGeometry x="63.480000000000004" y="432.1999999999998" width="199.46" height="309.5999999999999" as="geometry"/>
                </mxCell>
                <mxCell id="4AKRtzVXNAth7LrOjhMr-5" style="rounded=1;html=1;exitX=0.715;exitY=0;entryX=0.256;entryY=1;jettySize=auto;curved=0;endArrow=block;dashed=0;endFill=1;" edge="1" parent="4AKRtzVXNAth7LrOjhMr-2" source="4AKRtzVXNAth7LrOjhMr-4" target="4AKRtzVXNAth7LrOjhMr-3">
                    <mxGeometry relative="1" as="geometry"/>
                </mxCell>
                <mxCell id="4AKRtzVXNAth7LrOjhMr-6" value="&lt;p style='margin:0px;text-align:center;margin-top:4px;;font-size:10.0px;font-family:Times New Roman,serif;color:#000000;'&gt;#RemapWidget&lt;/p&gt;&lt;hr size='1'/&gt;&lt;p style='margin:0px;text-align:start;margin-left:4px;;font-size:10.0px;font-family:Times New Roman,serif;color:#000000;'&gt;absolute_checkbox&lt;br/&gt;name_to_type_map : dict&lt;br/&gt;relative_checkbox&lt;br/&gt;relative_scaling&lt;br/&gt;remap_type_layout&lt;br/&gt;remap_type_widget&lt;br/&gt;type_to_name_map : dict&lt;br/&gt;vjoy_selector&lt;/p&gt;&lt;hr size='1'/&gt;&lt;p style='margin:0px;text-align:start;margin-left:4px;;font-size:10.0px;font-family:Times New Roman,serif;color:#000000;'&gt;__init__(action_data, parent)&lt;br/&gt;_create_ui()&lt;br/&gt;_populate_ui()&lt;br/&gt;save_changes()&lt;/p&gt;" style="verticalAlign=top;align=left;overflow=fill;html=1;rounded=0;shadow=0;comic=0;labelBackgroundColor=none;strokeColor=black;strokeWidth=1;fillColor=#ffffff;" vertex="1" parent="4AKRtzVXNAth7LrOjhMr-2">
                    <mxGeometry x="280.96" y="465.7999999999997" width="178.5" height="242.4000000000001" as="geometry"/>
                </mxCell>
                <mxCell id="4AKRtzVXNAth7LrOjhMr-7" style="rounded=1;html=1;exitX=0.31;exitY=0;entryX=0.746;entryY=1;jettySize=auto;curved=0;endArrow=block;dashed=0;endFill=1;" edge="1" parent="4AKRtzVXNAth7LrOjhMr-2" source="4AKRtzVXNAth7LrOjhMr-6" target="4AKRtzVXNAth7LrOjhMr-3">
                    <mxGeometry relative="1" as="geometry"/>
                </mxCell>
                <mxCell id="4AKRtzVXNAth7LrOjhMr-8" value="&lt;p style='margin:0px;text-align:center;margin-top:4px;;font-size:10.0px;font-family:Times New Roman,serif;color:#000000;'&gt;_thread.RLock&lt;/p&gt;&lt;hr size='1'/&gt;&lt;p style='margin:0px;text-align:start;margin-left:4px;;font-size:10.0px;font-family:Times New Roman,serif;color:#000000;'&gt;__delattr__()&lt;br/&gt;__dir__()&lt;br/&gt;__enter__()&lt;br/&gt;__eq__()&lt;br/&gt;__exit__()&lt;br/&gt;__format__()&lt;br/&gt;__ge__()&lt;br/&gt;__getattribute__()&lt;br/&gt;__gt__()&lt;br/&gt;__hash__()&lt;br/&gt;__init__()&lt;br/&gt;__le__()&lt;br/&gt;__lt__()&lt;br/&gt;__ne__()&lt;br/&gt;__reduce__()&lt;br/&gt;__reduce_ex__()&lt;br/&gt;__repr__()&lt;br/&gt;__setattr__()&lt;br/&gt;__sizeof__()&lt;br/&gt;__str__()&lt;br/&gt;_acquire_restore()&lt;br/&gt;_is_owned()&lt;br/&gt;_release_save()&lt;br/&gt;acquire()&lt;br/&gt;release()&lt;/p&gt;" style="verticalAlign=top;align=left;overflow=fill;html=1;rounded=0;shadow=0;comic=0;labelBackgroundColor=none;strokeColor=black;strokeWidth=1;fillColor=#ffffff;" vertex="1" parent="4AKRtzVXNAth7LrOjhMr-2">
                    <mxGeometry x="121.91" y="2272.6" width="118.61" height="476.7999999999997" as="geometry"/>
                </mxCell>
                <mxCell id="4AKRtzVXNAth7LrOjhMr-9" value="&lt;p style='margin:0px;text-align:center;margin-top:4px;;font-size:10.0px;font-family:Times New Roman,serif;color:#000000;'&gt;threading.Condition&lt;/p&gt;&lt;hr size='1'/&gt;&lt;p style='margin:0px;text-align:start;margin-left:4px;;font-size:10.0px;font-family:Times New Roman,serif;color:#000000;'&gt;_acquire_restore&lt;br/&gt;_is_owned&lt;br/&gt;_lock : NoneType&lt;br/&gt;_release_save&lt;br/&gt;_waiters&lt;br/&gt;acquire&lt;br/&gt;notifyAll&lt;br/&gt;release&lt;/p&gt;&lt;hr size='1'/&gt;&lt;p style='margin:0px;text-align:start;margin-left:4px;;font-size:10.0px;font-family:Times New Roman,serif;color:#000000;'&gt;__enter__()&lt;br/&gt;__exit__()&lt;br/&gt;__init__(lock)&lt;br/&gt;__repr__()&lt;br/&gt;_acquire_restore(x)&lt;br/&gt;_is_owned()&lt;br/&gt;_release_save()&lt;br/&gt;notify(n)&lt;br/&gt;notify_all()&lt;br/&gt;wait(timeout)&lt;br/&gt;wait_for(predicate, timeout)&lt;/p&gt;" style="verticalAlign=top;align=left;overflow=fill;html=1;rounded=0;shadow=0;comic=0;labelBackgroundColor=none;strokeColor=black;strokeWidth=1;fillColor=#ffffff;" vertex="1" parent="4AKRtzVXNAth7LrOjhMr-2">
                    <mxGeometry x="252.3" y="1807.9999999999998" width="173.82000000000002" height="360.0000000000002" as="geometry"/>
                </mxCell>
                <mxCell id="4AKRtzVXNAth7LrOjhMr-10" style="rounded=1;html=1;exitX=0.948;exitY=0;entryX=0.0607;entryY=1;jettySize=auto;curved=0;endArrow=block;dashed=0;endFill=1;" edge="1" parent="4AKRtzVXNAth7LrOjhMr-2" source="4AKRtzVXNAth7LrOjhMr-8" target="4AKRtzVXNAth7LrOjhMr-9">
                    <mxGeometry relative="1" as="geometry">
                        <Array as="points">
                            <mxPoint x="234.35000000000002" y="2272.5699999999997"/>
                            <mxPoint x="249.20999999999998" y="2221.2999999999997"/>
                            <mxPoint x="262.85" y="2179.92"/>
                        </Array>
                    </mxGeometry>
                </mxCell>
                <mxCell id="4AKRtzVXNAth7LrOjhMr-11" value="&lt;p style='margin:0px;text-align:center;margin-top:4px;;font-size:10.0px;font-family:Times New Roman,serif;color:#000000;'&gt;threading.Event&lt;/p&gt;&lt;hr size='1'/&gt;&lt;p style='margin:0px;text-align:start;margin-left:4px;;font-size:10.0px;font-family:Times New Roman,serif;color:#000000;'&gt;_cond&lt;br/&gt;_flag : bool&lt;br/&gt;isSet&lt;/p&gt;&lt;hr size='1'/&gt;&lt;p style='margin:0px;text-align:start;margin-left:4px;;font-size:10.0px;font-family:Times New Roman,serif;color:#000000;'&gt;__init__()&lt;br/&gt;_reset_internal_locks()&lt;br/&gt;clear()&lt;br/&gt;is_set()&lt;br/&gt;set()&lt;br/&gt;wait(timeout)&lt;/p&gt;" style="verticalAlign=top;align=left;overflow=fill;html=1;rounded=0;shadow=0;comic=0;labelBackgroundColor=none;strokeColor=black;strokeWidth=1;fillColor=#ffffff;" vertex="1" parent="4AKRtzVXNAth7LrOjhMr-2">
                    <mxGeometry x="266.68" y="1562.1999999999998" width="145.06000000000003" height="192" as="geometry"/>
                </mxCell>
                <mxCell id="4AKRtzVXNAth7LrOjhMr-12" style="rounded=1;html=1;exitX=0.5;exitY=0;entryX=0.5;entryY=1;jettySize=auto;curved=0;endArrow=block;dashed=0;endFill=1;" edge="1" parent="4AKRtzVXNAth7LrOjhMr-2" source="4AKRtzVXNAth7LrOjhMr-9" target="4AKRtzVXNAth7LrOjhMr-11">
                    <mxGeometry relative="1" as="geometry"/>
                </mxCell>
                <mxCell id="4AKRtzVXNAth7LrOjhMr-13" value="&lt;p style='margin:0px;text-align:center;margin-top:4px;;font-size:10.0px;font-family:Times New Roman,serif;color:#000000;'&gt;collections.deque&lt;/p&gt;&lt;hr size='1'/&gt;&lt;p style='margin:0px;text-align:start;margin-left:4px;;font-size:10.0px;font-family:Times New Roman,serif;color:#000000;'&gt;iterable : list&lt;br/&gt;maxlen : int&lt;/p&gt;&lt;hr size='1'/&gt;&lt;p style='margin:0px;text-align:start;margin-left:4px;;font-size:10.0px;font-family:Times New Roman,serif;color:#000000;'&gt;__add__(other)&lt;br/&gt;__bool__()&lt;br/&gt;__contains__(o)&lt;br/&gt;__copy__()&lt;br/&gt;__delitem__(index)&lt;br/&gt;__getitem__(index)&lt;br/&gt;__iadd__(other)&lt;br/&gt;__imul__(other)&lt;br/&gt;__init__(iterable, maxlen)&lt;br/&gt;__iter__()&lt;br/&gt;__len__()&lt;br/&gt;__mul__(other)&lt;br/&gt;__nonzero__()&lt;br/&gt;__reversed__()&lt;br/&gt;__rmul__(other)&lt;br/&gt;__setitem__(index, value)&lt;br/&gt;append(x)&lt;br/&gt;appendleft(x)&lt;br/&gt;clear()&lt;br/&gt;copy()&lt;br/&gt;count(x)&lt;br/&gt;extend(iterable)&lt;br/&gt;extendleft(iterable)&lt;br/&gt;index(x, start, end)&lt;br/&gt;insert(x, i)&lt;br/&gt;pop()&lt;br/&gt;popleft()&lt;br/&gt;remove(value)&lt;br/&gt;reverse()&lt;br/&gt;rotate(n)&lt;/p&gt;" style="verticalAlign=top;align=left;overflow=fill;html=1;rounded=0;shadow=0;comic=0;labelBackgroundColor=none;strokeColor=black;strokeWidth=1;fillColor=#ffffff;" vertex="1" parent="4AKRtzVXNAth7LrOjhMr-2">
                    <mxGeometry x="258.12" y="2221.7999999999997" width="162.18000000000004" height="578.4000000000001" as="geometry"/>
                </mxCell>
                <mxCell id="4AKRtzVXNAth7LrOjhMr-14" style="rounded=1;html=1;exitX=0.5;exitY=0;entryX=0.5;entryY=1;jettySize=auto;curved=0;endArrow=block;dashed=0;endFill=1;" edge="1" parent="4AKRtzVXNAth7LrOjhMr-2" source="4AKRtzVXNAth7LrOjhMr-13" target="4AKRtzVXNAth7LrOjhMr-9">
                    <mxGeometry relative="1" as="geometry"/>
                </mxCell>
                <mxCell id="4AKRtzVXNAth7LrOjhMr-15" value="&lt;p style='margin:0px;text-align:center;margin-top:4px;;font-size:10.0px;font-family:Times New Roman,serif;color:#000000;'&gt;colorama.ansitowin32.StreamWrapper&lt;/p&gt;&lt;hr size='1'/&gt;&lt;p style='margin:0px;text-align:start;margin-left:4px;;font-size:10.0px;font-family:Times New Roman,serif;color:#000000;'&gt;__convertor&lt;br/&gt;__wrapped&lt;br/&gt;closed&lt;/p&gt;&lt;hr size='1'/&gt;&lt;p style='margin:0px;text-align:start;margin-left:4px;;font-size:10.0px;font-family:Times New Roman,serif;color:#000000;'&gt;__enter__()&lt;br/&gt;__exit__()&lt;br/&gt;__getattr__(name)&lt;br/&gt;__init__(wrapped, converter)&lt;br/&gt;isatty()&lt;br/&gt;write(text)&lt;/p&gt;" style="verticalAlign=top;align=left;overflow=fill;html=1;rounded=0;shadow=0;comic=0;labelBackgroundColor=none;strokeColor=black;strokeWidth=1;fillColor=#ffffff;" vertex="1" parent="4AKRtzVXNAth7LrOjhMr-2">
                    <mxGeometry x="16.14" y="1562.1999999999998" width="232.15" height="192" as="geometry"/>
                </mxCell>
                <mxCell id="4AKRtzVXNAth7LrOjhMr-16" value="&lt;p style='margin:0px;text-align:center;margin-top:4px;;font-size:10.0px;font-family:Times New Roman,serif;color:#000000;'&gt;threading.Thread&lt;/p&gt;&lt;hr size='1'/&gt;&lt;p style='margin:0px;text-align:start;margin-left:4px;;font-size:10.0px;font-family:Times New Roman,serif;color:#000000;'&gt;_args : tuple&lt;br/&gt;_daemonic : NoneType&lt;br/&gt;_ident : NoneType&lt;br/&gt;_initialized : bool&lt;br/&gt;_initialized : bool&lt;br/&gt;_invoke_excepthook&lt;br/&gt;_is_stopped : bool&lt;br/&gt;_kwargs : NoneType, dict&lt;br/&gt;_name : str&lt;br/&gt;_native_id : NoneType&lt;br/&gt;_started&lt;br/&gt;_stderr&lt;br/&gt;_target : NoneType&lt;br/&gt;_tstate_lock : NoneType&lt;br/&gt;daemon&lt;br/&gt;daemon&lt;br/&gt;ident&lt;br/&gt;name&lt;br/&gt;name&lt;br/&gt;native_id&lt;/p&gt;&lt;hr size='1'/&gt;&lt;p style='margin:0px;text-align:start;margin-left:4px;;font-size:10.0px;font-family:Times New Roman,serif;color:#000000;'&gt;__init__(group, target, name, args, kwargs)&lt;br/&gt;__repr__()&lt;br/&gt;_bootstrap()&lt;br/&gt;_bootstrap_inner()&lt;br/&gt;_delete()&lt;br/&gt;_reset_internal_locks(is_alive)&lt;br/&gt;_set_ident()&lt;br/&gt;_set_native_id()&lt;br/&gt;_set_tstate_lock()&lt;br/&gt;_stop()&lt;br/&gt;_wait_for_tstate_lock(block, timeout)&lt;br/&gt;getName()&lt;br/&gt;isAlive()&lt;br/&gt;isDaemon()&lt;br/&gt;is_alive()&lt;br/&gt;join(timeout)&lt;br/&gt;run()&lt;br/&gt;setDaemon(daemonic)&lt;br/&gt;setName(name)&lt;br/&gt;start()&lt;/p&gt;" style="verticalAlign=top;align=left;overflow=fill;html=1;rounded=0;shadow=0;comic=0;labelBackgroundColor=none;strokeColor=black;strokeWidth=1;fillColor=#ffffff;" vertex="1" parent="4AKRtzVXNAth7LrOjhMr-2">
                    <mxGeometry x="33.91" y="795.5999999999999" width="258.6" height="712.8" as="geometry"/>
                </mxCell>
                <mxCell id="4AKRtzVXNAth7LrOjhMr-17" style="rounded=1;html=1;exitX=0.5;exitY=0;entryX=0.5;entryY=1;jettySize=auto;curved=0;endArrow=block;dashed=0;endFill=1;" edge="1" parent="4AKRtzVXNAth7LrOjhMr-2" source="4AKRtzVXNAth7LrOjhMr-16" target="4AKRtzVXNAth7LrOjhMr-4">
                    <mxGeometry relative="1" as="geometry"/>
                </mxCell>
                <mxCell id="4AKRtzVXNAth7LrOjhMr-18" style="rounded=1;html=1;exitX=0.271;exitY=0;entryX=0.995;entryY=1;jettySize=auto;curved=0;endArrow=block;dashed=0;endFill=1;" edge="1" parent="4AKRtzVXNAth7LrOjhMr-2" source="4AKRtzVXNAth7LrOjhMr-11" target="4AKRtzVXNAth7LrOjhMr-16">
                    <mxGeometry relative="1" as="geometry"/>
                </mxCell>
                <mxCell id="4AKRtzVXNAth7LrOjhMr-19" style="rounded=1;html=1;exitX=0.5;exitY=0;entryX=0.5;entryY=1;jettySize=auto;curved=0;endArrow=block;dashed=0;endFill=1;" edge="1" parent="4AKRtzVXNAth7LrOjhMr-2" source="4AKRtzVXNAth7LrOjhMr-15" target="4AKRtzVXNAth7LrOjhMr-16">
                    <mxGeometry relative="1" as="geometry"/>
                </mxCell>
                <mxCell id="4AKRtzVXNAth7LrOjhMr-20" value="&lt;p style='margin:0px;text-align:center;margin-top:4px;;font-size:10.0px;font-family:Times New Roman,serif;color:#000000;'&gt;threading._RLock&lt;/p&gt;&lt;hr size='1'/&gt;&lt;p style='margin:0px;text-align:start;margin-left:4px;;font-size:10.0px;font-family:Times New Roman,serif;color:#000000;'&gt;__enter__&lt;br/&gt;_block&lt;br/&gt;_count : int&lt;br/&gt;_owner : NoneType&lt;/p&gt;&lt;hr size='1'/&gt;&lt;p style='margin:0px;text-align:start;margin-left:4px;;font-size:10.0px;font-family:Times New Roman,serif;color:#000000;'&gt;__exit__(t, v, tb)&lt;br/&gt;__init__()&lt;br/&gt;__repr__()&lt;br/&gt;_acquire_restore(state)&lt;br/&gt;_is_owned()&lt;br/&gt;_release_save()&lt;br/&gt;acquire(blocking, timeout)&lt;br/&gt;release()&lt;/p&gt;" style="verticalAlign=top;align=left;overflow=fill;html=1;rounded=0;shadow=0;comic=0;labelBackgroundColor=none;strokeColor=black;strokeWidth=1;fillColor=#ffffff;" vertex="1" parent="4AKRtzVXNAth7LrOjhMr-2">
                    <mxGeometry x="438.57" y="2389.7999999999997" width="165.28000000000003" height="242.4000000000001" as="geometry"/>
                </mxCell>
                <mxCell id="4AKRtzVXNAth7LrOjhMr-21" style="rounded=1;html=1;exitX=0.279;exitY=0;entryX=0.931;entryY=1;jettySize=auto;curved=0;endArrow=block;dashed=0;endFill=1;" edge="1" parent="4AKRtzVXNAth7LrOjhMr-2" source="4AKRtzVXNAth7LrOjhMr-20" target="4AKRtzVXNAth7LrOjhMr-9">
                    <mxGeometry relative="1" as="geometry">
                        <Array as="points">
                            <mxPoint x="484.68" y="2389.71"/>
                            <mxPoint x="429.21" y="2221.2999999999997"/>
                            <mxPoint x="414.06" y="2179.3999999999996"/>
                        </Array>
                    </mxGeometry>
                </mxCell>
            </root>
        </mxGraphModel>
    </diagram>
</mxfile>